G04 #@! TF.GenerationSoftware,KiCad,Pcbnew,(5.0.0)*
G04 #@! TF.CreationDate,2018-10-14T22:14:47+02:00*
G04 #@! TF.ProjectId,model-f-5291-pcb-panel,6D6F64656C2D662D353239312D706362,rev?*
G04 #@! TF.SameCoordinates,Original*
G04 #@! TF.FileFunction,Legend,Bot*
G04 #@! TF.FilePolarity,Positive*
%FSLAX46Y46*%
G04 Gerber Fmt 4.6, Leading zero omitted, Abs format (unit mm)*
G04 Created by KiCad (PCBNEW (5.0.0)) date 10/14/18 22:14:47*
%MOMM*%
%LPD*%
G01*
G04 APERTURE LIST*
%ADD10C,0.250000*%
%ADD11C,0.300000*%
G04 APERTURE END LIST*
D10*
X209087619Y-126432500D02*
X210087619Y-126432500D01*
X210087619Y-126194404D01*
X210040000Y-126051547D01*
X209944761Y-125956309D01*
X209849523Y-125908690D01*
X209659047Y-125861071D01*
X209516190Y-125861071D01*
X209325714Y-125908690D01*
X209230476Y-125956309D01*
X209135238Y-126051547D01*
X209087619Y-126194404D01*
X209087619Y-126432500D01*
X209468571Y-125432500D02*
X209468571Y-124670595D01*
X209087619Y-125051547D02*
X209849523Y-125051547D01*
X159087619Y-126432500D02*
X160087619Y-126432500D01*
X160087619Y-126194404D01*
X160040000Y-126051547D01*
X159944761Y-125956309D01*
X159849523Y-125908690D01*
X159659047Y-125861071D01*
X159516190Y-125861071D01*
X159325714Y-125908690D01*
X159230476Y-125956309D01*
X159135238Y-126051547D01*
X159087619Y-126194404D01*
X159087619Y-126432500D01*
X159468571Y-125432500D02*
X159468571Y-124670595D01*
X159087619Y-125051547D02*
X159849523Y-125051547D01*
X209087619Y-96432500D02*
X210087619Y-96432500D01*
X210087619Y-96194404D01*
X210040000Y-96051547D01*
X209944761Y-95956309D01*
X209849523Y-95908690D01*
X209659047Y-95861071D01*
X209516190Y-95861071D01*
X209325714Y-95908690D01*
X209230476Y-95956309D01*
X209135238Y-96051547D01*
X209087619Y-96194404D01*
X209087619Y-96432500D01*
X209468571Y-95432500D02*
X209468571Y-94670595D01*
X209087619Y-95051547D02*
X209849523Y-95051547D01*
X159087619Y-96432500D02*
X160087619Y-96432500D01*
X160087619Y-96194404D01*
X160040000Y-96051547D01*
X159944761Y-95956309D01*
X159849523Y-95908690D01*
X159659047Y-95861071D01*
X159516190Y-95861071D01*
X159325714Y-95908690D01*
X159230476Y-95956309D01*
X159135238Y-96051547D01*
X159087619Y-96194404D01*
X159087619Y-96432500D01*
X159468571Y-95432500D02*
X159468571Y-94670595D01*
X159087619Y-95051547D02*
X159849523Y-95051547D01*
X209087619Y-66432500D02*
X210087619Y-66432500D01*
X210087619Y-66194404D01*
X210040000Y-66051547D01*
X209944761Y-65956309D01*
X209849523Y-65908690D01*
X209659047Y-65861071D01*
X209516190Y-65861071D01*
X209325714Y-65908690D01*
X209230476Y-65956309D01*
X209135238Y-66051547D01*
X209087619Y-66194404D01*
X209087619Y-66432500D01*
X209468571Y-65432500D02*
X209468571Y-64670595D01*
X209087619Y-65051547D02*
X209849523Y-65051547D01*
D11*
X240071428Y-132178571D02*
X240071428Y-130678571D01*
X239571428Y-131750000D01*
X239071428Y-130678571D01*
X239071428Y-132178571D01*
X238500000Y-130678571D02*
X237500000Y-132178571D01*
X237500000Y-130678571D02*
X238500000Y-132178571D01*
X235857142Y-130607142D02*
X237142857Y-132535714D01*
X235428571Y-132107142D02*
X235214285Y-132178571D01*
X234857142Y-132178571D01*
X234714285Y-132107142D01*
X234642857Y-132035714D01*
X234571428Y-131892857D01*
X234571428Y-131750000D01*
X234642857Y-131607142D01*
X234714285Y-131535714D01*
X234857142Y-131464285D01*
X235142857Y-131392857D01*
X235285714Y-131321428D01*
X235357142Y-131250000D01*
X235428571Y-131107142D01*
X235428571Y-130964285D01*
X235357142Y-130821428D01*
X235285714Y-130750000D01*
X235142857Y-130678571D01*
X234785714Y-130678571D01*
X234571428Y-130750000D01*
X233928571Y-132178571D02*
X233928571Y-130678571D01*
X233071428Y-132178571D02*
X233714285Y-131321428D01*
X233071428Y-130678571D02*
X233928571Y-131535714D01*
X231571428Y-132035714D02*
X231642857Y-132107142D01*
X231857142Y-132178571D01*
X232000000Y-132178571D01*
X232214285Y-132107142D01*
X232357142Y-131964285D01*
X232428571Y-131821428D01*
X232500000Y-131535714D01*
X232500000Y-131321428D01*
X232428571Y-131035714D01*
X232357142Y-130892857D01*
X232214285Y-130750000D01*
X232000000Y-130678571D01*
X231857142Y-130678571D01*
X231642857Y-130750000D01*
X231571428Y-130821428D01*
X230928571Y-132178571D02*
X230928571Y-130678571D01*
X230428571Y-131750000D01*
X229928571Y-130678571D01*
X229928571Y-132178571D01*
X228142857Y-130607142D02*
X229428571Y-132535714D01*
X227642857Y-132178571D02*
X227642857Y-130678571D01*
X226785714Y-132178571D02*
X227428571Y-131321428D01*
X226785714Y-130678571D02*
X227642857Y-131535714D01*
X225500000Y-132178571D02*
X225500000Y-131392857D01*
X225571428Y-131250000D01*
X225714285Y-131178571D01*
X226000000Y-131178571D01*
X226142857Y-131250000D01*
X225500000Y-132107142D02*
X225642857Y-132178571D01*
X226000000Y-132178571D01*
X226142857Y-132107142D01*
X226214285Y-131964285D01*
X226214285Y-131821428D01*
X226142857Y-131678571D01*
X226000000Y-131607142D01*
X225642857Y-131607142D01*
X225500000Y-131535714D01*
X224785714Y-132178571D02*
X224785714Y-131178571D01*
X224785714Y-130678571D02*
X224857142Y-130750000D01*
X224785714Y-130821428D01*
X224714285Y-130750000D01*
X224785714Y-130678571D01*
X224785714Y-130821428D01*
X223857142Y-132178571D02*
X224000000Y-132107142D01*
X224071428Y-131964285D01*
X224071428Y-130678571D01*
X223285714Y-132178571D02*
X223285714Y-130678571D01*
X222642857Y-132178571D02*
X222642857Y-131392857D01*
X222714285Y-131250000D01*
X222857142Y-131178571D01*
X223071428Y-131178571D01*
X223214285Y-131250000D01*
X223285714Y-131321428D01*
X221214285Y-132178571D02*
X221928571Y-132178571D01*
X221928571Y-130678571D01*
X220714285Y-132178571D02*
X220714285Y-130678571D01*
X220142857Y-130678571D01*
X220000000Y-130750000D01*
X219928571Y-130821428D01*
X219857142Y-130964285D01*
X219857142Y-131178571D01*
X219928571Y-131321428D01*
X220000000Y-131392857D01*
X220142857Y-131464285D01*
X220714285Y-131464285D01*
X218071428Y-131178571D02*
X216928571Y-131607142D01*
X218071428Y-132035714D01*
X190071428Y-132178571D02*
X190071428Y-130678571D01*
X189571428Y-131750000D01*
X189071428Y-130678571D01*
X189071428Y-132178571D01*
X188500000Y-130678571D02*
X187500000Y-132178571D01*
X187500000Y-130678571D02*
X188500000Y-132178571D01*
X185857142Y-130607142D02*
X187142857Y-132535714D01*
X185428571Y-132107142D02*
X185214285Y-132178571D01*
X184857142Y-132178571D01*
X184714285Y-132107142D01*
X184642857Y-132035714D01*
X184571428Y-131892857D01*
X184571428Y-131750000D01*
X184642857Y-131607142D01*
X184714285Y-131535714D01*
X184857142Y-131464285D01*
X185142857Y-131392857D01*
X185285714Y-131321428D01*
X185357142Y-131250000D01*
X185428571Y-131107142D01*
X185428571Y-130964285D01*
X185357142Y-130821428D01*
X185285714Y-130750000D01*
X185142857Y-130678571D01*
X184785714Y-130678571D01*
X184571428Y-130750000D01*
X183928571Y-132178571D02*
X183928571Y-130678571D01*
X183071428Y-132178571D02*
X183714285Y-131321428D01*
X183071428Y-130678571D02*
X183928571Y-131535714D01*
X181571428Y-132035714D02*
X181642857Y-132107142D01*
X181857142Y-132178571D01*
X182000000Y-132178571D01*
X182214285Y-132107142D01*
X182357142Y-131964285D01*
X182428571Y-131821428D01*
X182500000Y-131535714D01*
X182500000Y-131321428D01*
X182428571Y-131035714D01*
X182357142Y-130892857D01*
X182214285Y-130750000D01*
X182000000Y-130678571D01*
X181857142Y-130678571D01*
X181642857Y-130750000D01*
X181571428Y-130821428D01*
X180928571Y-132178571D02*
X180928571Y-130678571D01*
X180428571Y-131750000D01*
X179928571Y-130678571D01*
X179928571Y-132178571D01*
X178142857Y-130607142D02*
X179428571Y-132535714D01*
X177642857Y-132178571D02*
X177642857Y-130678571D01*
X176785714Y-132178571D02*
X177428571Y-131321428D01*
X176785714Y-130678571D02*
X177642857Y-131535714D01*
X175500000Y-132178571D02*
X175500000Y-131392857D01*
X175571428Y-131250000D01*
X175714285Y-131178571D01*
X176000000Y-131178571D01*
X176142857Y-131250000D01*
X175500000Y-132107142D02*
X175642857Y-132178571D01*
X176000000Y-132178571D01*
X176142857Y-132107142D01*
X176214285Y-131964285D01*
X176214285Y-131821428D01*
X176142857Y-131678571D01*
X176000000Y-131607142D01*
X175642857Y-131607142D01*
X175500000Y-131535714D01*
X174785714Y-132178571D02*
X174785714Y-131178571D01*
X174785714Y-130678571D02*
X174857142Y-130750000D01*
X174785714Y-130821428D01*
X174714285Y-130750000D01*
X174785714Y-130678571D01*
X174785714Y-130821428D01*
X173857142Y-132178571D02*
X174000000Y-132107142D01*
X174071428Y-131964285D01*
X174071428Y-130678571D01*
X173285714Y-132178571D02*
X173285714Y-130678571D01*
X172642857Y-132178571D02*
X172642857Y-131392857D01*
X172714285Y-131250000D01*
X172857142Y-131178571D01*
X173071428Y-131178571D01*
X173214285Y-131250000D01*
X173285714Y-131321428D01*
X171214285Y-132178571D02*
X171928571Y-132178571D01*
X171928571Y-130678571D01*
X170714285Y-132178571D02*
X170714285Y-130678571D01*
X170142857Y-130678571D01*
X170000000Y-130750000D01*
X169928571Y-130821428D01*
X169857142Y-130964285D01*
X169857142Y-131178571D01*
X169928571Y-131321428D01*
X170000000Y-131392857D01*
X170142857Y-131464285D01*
X170714285Y-131464285D01*
X168071428Y-131178571D02*
X166928571Y-131607142D01*
X168071428Y-132035714D01*
X240071428Y-102178571D02*
X240071428Y-100678571D01*
X239571428Y-101750000D01*
X239071428Y-100678571D01*
X239071428Y-102178571D01*
X238500000Y-100678571D02*
X237500000Y-102178571D01*
X237500000Y-100678571D02*
X238500000Y-102178571D01*
X235857142Y-100607142D02*
X237142857Y-102535714D01*
X235428571Y-102107142D02*
X235214285Y-102178571D01*
X234857142Y-102178571D01*
X234714285Y-102107142D01*
X234642857Y-102035714D01*
X234571428Y-101892857D01*
X234571428Y-101750000D01*
X234642857Y-101607142D01*
X234714285Y-101535714D01*
X234857142Y-101464285D01*
X235142857Y-101392857D01*
X235285714Y-101321428D01*
X235357142Y-101250000D01*
X235428571Y-101107142D01*
X235428571Y-100964285D01*
X235357142Y-100821428D01*
X235285714Y-100750000D01*
X235142857Y-100678571D01*
X234785714Y-100678571D01*
X234571428Y-100750000D01*
X233928571Y-102178571D02*
X233928571Y-100678571D01*
X233071428Y-102178571D02*
X233714285Y-101321428D01*
X233071428Y-100678571D02*
X233928571Y-101535714D01*
X231571428Y-102035714D02*
X231642857Y-102107142D01*
X231857142Y-102178571D01*
X232000000Y-102178571D01*
X232214285Y-102107142D01*
X232357142Y-101964285D01*
X232428571Y-101821428D01*
X232500000Y-101535714D01*
X232500000Y-101321428D01*
X232428571Y-101035714D01*
X232357142Y-100892857D01*
X232214285Y-100750000D01*
X232000000Y-100678571D01*
X231857142Y-100678571D01*
X231642857Y-100750000D01*
X231571428Y-100821428D01*
X230928571Y-102178571D02*
X230928571Y-100678571D01*
X230428571Y-101750000D01*
X229928571Y-100678571D01*
X229928571Y-102178571D01*
X228142857Y-100607142D02*
X229428571Y-102535714D01*
X227642857Y-102178571D02*
X227642857Y-100678571D01*
X226785714Y-102178571D02*
X227428571Y-101321428D01*
X226785714Y-100678571D02*
X227642857Y-101535714D01*
X225500000Y-102178571D02*
X225500000Y-101392857D01*
X225571428Y-101250000D01*
X225714285Y-101178571D01*
X226000000Y-101178571D01*
X226142857Y-101250000D01*
X225500000Y-102107142D02*
X225642857Y-102178571D01*
X226000000Y-102178571D01*
X226142857Y-102107142D01*
X226214285Y-101964285D01*
X226214285Y-101821428D01*
X226142857Y-101678571D01*
X226000000Y-101607142D01*
X225642857Y-101607142D01*
X225500000Y-101535714D01*
X224785714Y-102178571D02*
X224785714Y-101178571D01*
X224785714Y-100678571D02*
X224857142Y-100750000D01*
X224785714Y-100821428D01*
X224714285Y-100750000D01*
X224785714Y-100678571D01*
X224785714Y-100821428D01*
X223857142Y-102178571D02*
X224000000Y-102107142D01*
X224071428Y-101964285D01*
X224071428Y-100678571D01*
X223285714Y-102178571D02*
X223285714Y-100678571D01*
X222642857Y-102178571D02*
X222642857Y-101392857D01*
X222714285Y-101250000D01*
X222857142Y-101178571D01*
X223071428Y-101178571D01*
X223214285Y-101250000D01*
X223285714Y-101321428D01*
X221214285Y-102178571D02*
X221928571Y-102178571D01*
X221928571Y-100678571D01*
X220714285Y-102178571D02*
X220714285Y-100678571D01*
X220142857Y-100678571D01*
X220000000Y-100750000D01*
X219928571Y-100821428D01*
X219857142Y-100964285D01*
X219857142Y-101178571D01*
X219928571Y-101321428D01*
X220000000Y-101392857D01*
X220142857Y-101464285D01*
X220714285Y-101464285D01*
X218071428Y-101178571D02*
X216928571Y-101607142D01*
X218071428Y-102035714D01*
X190071428Y-102178571D02*
X190071428Y-100678571D01*
X189571428Y-101750000D01*
X189071428Y-100678571D01*
X189071428Y-102178571D01*
X188500000Y-100678571D02*
X187500000Y-102178571D01*
X187500000Y-100678571D02*
X188500000Y-102178571D01*
X185857142Y-100607142D02*
X187142857Y-102535714D01*
X185428571Y-102107142D02*
X185214285Y-102178571D01*
X184857142Y-102178571D01*
X184714285Y-102107142D01*
X184642857Y-102035714D01*
X184571428Y-101892857D01*
X184571428Y-101750000D01*
X184642857Y-101607142D01*
X184714285Y-101535714D01*
X184857142Y-101464285D01*
X185142857Y-101392857D01*
X185285714Y-101321428D01*
X185357142Y-101250000D01*
X185428571Y-101107142D01*
X185428571Y-100964285D01*
X185357142Y-100821428D01*
X185285714Y-100750000D01*
X185142857Y-100678571D01*
X184785714Y-100678571D01*
X184571428Y-100750000D01*
X183928571Y-102178571D02*
X183928571Y-100678571D01*
X183071428Y-102178571D02*
X183714285Y-101321428D01*
X183071428Y-100678571D02*
X183928571Y-101535714D01*
X181571428Y-102035714D02*
X181642857Y-102107142D01*
X181857142Y-102178571D01*
X182000000Y-102178571D01*
X182214285Y-102107142D01*
X182357142Y-101964285D01*
X182428571Y-101821428D01*
X182500000Y-101535714D01*
X182500000Y-101321428D01*
X182428571Y-101035714D01*
X182357142Y-100892857D01*
X182214285Y-100750000D01*
X182000000Y-100678571D01*
X181857142Y-100678571D01*
X181642857Y-100750000D01*
X181571428Y-100821428D01*
X180928571Y-102178571D02*
X180928571Y-100678571D01*
X180428571Y-101750000D01*
X179928571Y-100678571D01*
X179928571Y-102178571D01*
X178142857Y-100607142D02*
X179428571Y-102535714D01*
X177642857Y-102178571D02*
X177642857Y-100678571D01*
X176785714Y-102178571D02*
X177428571Y-101321428D01*
X176785714Y-100678571D02*
X177642857Y-101535714D01*
X175500000Y-102178571D02*
X175500000Y-101392857D01*
X175571428Y-101250000D01*
X175714285Y-101178571D01*
X176000000Y-101178571D01*
X176142857Y-101250000D01*
X175500000Y-102107142D02*
X175642857Y-102178571D01*
X176000000Y-102178571D01*
X176142857Y-102107142D01*
X176214285Y-101964285D01*
X176214285Y-101821428D01*
X176142857Y-101678571D01*
X176000000Y-101607142D01*
X175642857Y-101607142D01*
X175500000Y-101535714D01*
X174785714Y-102178571D02*
X174785714Y-101178571D01*
X174785714Y-100678571D02*
X174857142Y-100750000D01*
X174785714Y-100821428D01*
X174714285Y-100750000D01*
X174785714Y-100678571D01*
X174785714Y-100821428D01*
X173857142Y-102178571D02*
X174000000Y-102107142D01*
X174071428Y-101964285D01*
X174071428Y-100678571D01*
X173285714Y-102178571D02*
X173285714Y-100678571D01*
X172642857Y-102178571D02*
X172642857Y-101392857D01*
X172714285Y-101250000D01*
X172857142Y-101178571D01*
X173071428Y-101178571D01*
X173214285Y-101250000D01*
X173285714Y-101321428D01*
X171214285Y-102178571D02*
X171928571Y-102178571D01*
X171928571Y-100678571D01*
X170714285Y-102178571D02*
X170714285Y-100678571D01*
X170142857Y-100678571D01*
X170000000Y-100750000D01*
X169928571Y-100821428D01*
X169857142Y-100964285D01*
X169857142Y-101178571D01*
X169928571Y-101321428D01*
X170000000Y-101392857D01*
X170142857Y-101464285D01*
X170714285Y-101464285D01*
X168071428Y-101178571D02*
X166928571Y-101607142D01*
X168071428Y-102035714D01*
X240071428Y-72178571D02*
X240071428Y-70678571D01*
X239571428Y-71750000D01*
X239071428Y-70678571D01*
X239071428Y-72178571D01*
X238500000Y-70678571D02*
X237500000Y-72178571D01*
X237500000Y-70678571D02*
X238500000Y-72178571D01*
X235857142Y-70607142D02*
X237142857Y-72535714D01*
X235428571Y-72107142D02*
X235214285Y-72178571D01*
X234857142Y-72178571D01*
X234714285Y-72107142D01*
X234642857Y-72035714D01*
X234571428Y-71892857D01*
X234571428Y-71750000D01*
X234642857Y-71607142D01*
X234714285Y-71535714D01*
X234857142Y-71464285D01*
X235142857Y-71392857D01*
X235285714Y-71321428D01*
X235357142Y-71250000D01*
X235428571Y-71107142D01*
X235428571Y-70964285D01*
X235357142Y-70821428D01*
X235285714Y-70750000D01*
X235142857Y-70678571D01*
X234785714Y-70678571D01*
X234571428Y-70750000D01*
X233928571Y-72178571D02*
X233928571Y-70678571D01*
X233071428Y-72178571D02*
X233714285Y-71321428D01*
X233071428Y-70678571D02*
X233928571Y-71535714D01*
X231571428Y-72035714D02*
X231642857Y-72107142D01*
X231857142Y-72178571D01*
X232000000Y-72178571D01*
X232214285Y-72107142D01*
X232357142Y-71964285D01*
X232428571Y-71821428D01*
X232500000Y-71535714D01*
X232500000Y-71321428D01*
X232428571Y-71035714D01*
X232357142Y-70892857D01*
X232214285Y-70750000D01*
X232000000Y-70678571D01*
X231857142Y-70678571D01*
X231642857Y-70750000D01*
X231571428Y-70821428D01*
X230928571Y-72178571D02*
X230928571Y-70678571D01*
X230428571Y-71750000D01*
X229928571Y-70678571D01*
X229928571Y-72178571D01*
X228142857Y-70607142D02*
X229428571Y-72535714D01*
X227642857Y-72178571D02*
X227642857Y-70678571D01*
X226785714Y-72178571D02*
X227428571Y-71321428D01*
X226785714Y-70678571D02*
X227642857Y-71535714D01*
X225500000Y-72178571D02*
X225500000Y-71392857D01*
X225571428Y-71250000D01*
X225714285Y-71178571D01*
X226000000Y-71178571D01*
X226142857Y-71250000D01*
X225500000Y-72107142D02*
X225642857Y-72178571D01*
X226000000Y-72178571D01*
X226142857Y-72107142D01*
X226214285Y-71964285D01*
X226214285Y-71821428D01*
X226142857Y-71678571D01*
X226000000Y-71607142D01*
X225642857Y-71607142D01*
X225500000Y-71535714D01*
X224785714Y-72178571D02*
X224785714Y-71178571D01*
X224785714Y-70678571D02*
X224857142Y-70750000D01*
X224785714Y-70821428D01*
X224714285Y-70750000D01*
X224785714Y-70678571D01*
X224785714Y-70821428D01*
X223857142Y-72178571D02*
X224000000Y-72107142D01*
X224071428Y-71964285D01*
X224071428Y-70678571D01*
X223285714Y-72178571D02*
X223285714Y-70678571D01*
X222642857Y-72178571D02*
X222642857Y-71392857D01*
X222714285Y-71250000D01*
X222857142Y-71178571D01*
X223071428Y-71178571D01*
X223214285Y-71250000D01*
X223285714Y-71321428D01*
X221214285Y-72178571D02*
X221928571Y-72178571D01*
X221928571Y-70678571D01*
X220714285Y-72178571D02*
X220714285Y-70678571D01*
X220142857Y-70678571D01*
X220000000Y-70750000D01*
X219928571Y-70821428D01*
X219857142Y-70964285D01*
X219857142Y-71178571D01*
X219928571Y-71321428D01*
X220000000Y-71392857D01*
X220142857Y-71464285D01*
X220714285Y-71464285D01*
X218071428Y-71178571D02*
X216928571Y-71607142D01*
X218071428Y-72035714D01*
D10*
X236357619Y-115567404D02*
X237357619Y-115567404D01*
X236643333Y-115234071D01*
X237357619Y-114900738D01*
X236357619Y-114900738D01*
X236357619Y-114424547D02*
X237357619Y-114424547D01*
X236405238Y-113995976D02*
X236357619Y-113853119D01*
X236357619Y-113615023D01*
X236405238Y-113519785D01*
X236452857Y-113472166D01*
X236548095Y-113424547D01*
X236643333Y-113424547D01*
X236738571Y-113472166D01*
X236786190Y-113519785D01*
X236833809Y-113615023D01*
X236881428Y-113805500D01*
X236929047Y-113900738D01*
X236976666Y-113948357D01*
X237071904Y-113995976D01*
X237167142Y-113995976D01*
X237262380Y-113948357D01*
X237310000Y-113900738D01*
X237357619Y-113805500D01*
X237357619Y-113567404D01*
X237310000Y-113424547D01*
X237357619Y-112805500D02*
X237357619Y-112615023D01*
X237310000Y-112519785D01*
X237214761Y-112424547D01*
X237024285Y-112376928D01*
X236690952Y-112376928D01*
X236500476Y-112424547D01*
X236405238Y-112519785D01*
X236357619Y-112615023D01*
X236357619Y-112805500D01*
X236405238Y-112900738D01*
X236500476Y-112995976D01*
X236690952Y-113043595D01*
X237024285Y-113043595D01*
X237214761Y-112995976D01*
X237310000Y-112900738D01*
X237357619Y-112805500D01*
X186357619Y-115567404D02*
X187357619Y-115567404D01*
X186643333Y-115234071D01*
X187357619Y-114900738D01*
X186357619Y-114900738D01*
X186357619Y-114424547D02*
X187357619Y-114424547D01*
X186405238Y-113995976D02*
X186357619Y-113853119D01*
X186357619Y-113615023D01*
X186405238Y-113519785D01*
X186452857Y-113472166D01*
X186548095Y-113424547D01*
X186643333Y-113424547D01*
X186738571Y-113472166D01*
X186786190Y-113519785D01*
X186833809Y-113615023D01*
X186881428Y-113805500D01*
X186929047Y-113900738D01*
X186976666Y-113948357D01*
X187071904Y-113995976D01*
X187167142Y-113995976D01*
X187262380Y-113948357D01*
X187310000Y-113900738D01*
X187357619Y-113805500D01*
X187357619Y-113567404D01*
X187310000Y-113424547D01*
X187357619Y-112805500D02*
X187357619Y-112615023D01*
X187310000Y-112519785D01*
X187214761Y-112424547D01*
X187024285Y-112376928D01*
X186690952Y-112376928D01*
X186500476Y-112424547D01*
X186405238Y-112519785D01*
X186357619Y-112615023D01*
X186357619Y-112805500D01*
X186405238Y-112900738D01*
X186500476Y-112995976D01*
X186690952Y-113043595D01*
X187024285Y-113043595D01*
X187214761Y-112995976D01*
X187310000Y-112900738D01*
X187357619Y-112805500D01*
X236357619Y-85567404D02*
X237357619Y-85567404D01*
X236643333Y-85234071D01*
X237357619Y-84900738D01*
X236357619Y-84900738D01*
X236357619Y-84424547D02*
X237357619Y-84424547D01*
X236405238Y-83995976D02*
X236357619Y-83853119D01*
X236357619Y-83615023D01*
X236405238Y-83519785D01*
X236452857Y-83472166D01*
X236548095Y-83424547D01*
X236643333Y-83424547D01*
X236738571Y-83472166D01*
X236786190Y-83519785D01*
X236833809Y-83615023D01*
X236881428Y-83805500D01*
X236929047Y-83900738D01*
X236976666Y-83948357D01*
X237071904Y-83995976D01*
X237167142Y-83995976D01*
X237262380Y-83948357D01*
X237310000Y-83900738D01*
X237357619Y-83805500D01*
X237357619Y-83567404D01*
X237310000Y-83424547D01*
X237357619Y-82805500D02*
X237357619Y-82615023D01*
X237310000Y-82519785D01*
X237214761Y-82424547D01*
X237024285Y-82376928D01*
X236690952Y-82376928D01*
X236500476Y-82424547D01*
X236405238Y-82519785D01*
X236357619Y-82615023D01*
X236357619Y-82805500D01*
X236405238Y-82900738D01*
X236500476Y-82995976D01*
X236690952Y-83043595D01*
X237024285Y-83043595D01*
X237214761Y-82995976D01*
X237310000Y-82900738D01*
X237357619Y-82805500D01*
X186357619Y-85567404D02*
X187357619Y-85567404D01*
X186643333Y-85234071D01*
X187357619Y-84900738D01*
X186357619Y-84900738D01*
X186357619Y-84424547D02*
X187357619Y-84424547D01*
X186405238Y-83995976D02*
X186357619Y-83853119D01*
X186357619Y-83615023D01*
X186405238Y-83519785D01*
X186452857Y-83472166D01*
X186548095Y-83424547D01*
X186643333Y-83424547D01*
X186738571Y-83472166D01*
X186786190Y-83519785D01*
X186833809Y-83615023D01*
X186881428Y-83805500D01*
X186929047Y-83900738D01*
X186976666Y-83948357D01*
X187071904Y-83995976D01*
X187167142Y-83995976D01*
X187262380Y-83948357D01*
X187310000Y-83900738D01*
X187357619Y-83805500D01*
X187357619Y-83567404D01*
X187310000Y-83424547D01*
X187357619Y-82805500D02*
X187357619Y-82615023D01*
X187310000Y-82519785D01*
X187214761Y-82424547D01*
X187024285Y-82376928D01*
X186690952Y-82376928D01*
X186500476Y-82424547D01*
X186405238Y-82519785D01*
X186357619Y-82615023D01*
X186357619Y-82805500D01*
X186405238Y-82900738D01*
X186500476Y-82995976D01*
X186690952Y-83043595D01*
X187024285Y-83043595D01*
X187214761Y-82995976D01*
X187310000Y-82900738D01*
X187357619Y-82805500D01*
X236357619Y-55567404D02*
X237357619Y-55567404D01*
X236643333Y-55234071D01*
X237357619Y-54900738D01*
X236357619Y-54900738D01*
X236357619Y-54424547D02*
X237357619Y-54424547D01*
X236405238Y-53995976D02*
X236357619Y-53853119D01*
X236357619Y-53615023D01*
X236405238Y-53519785D01*
X236452857Y-53472166D01*
X236548095Y-53424547D01*
X236643333Y-53424547D01*
X236738571Y-53472166D01*
X236786190Y-53519785D01*
X236833809Y-53615023D01*
X236881428Y-53805500D01*
X236929047Y-53900738D01*
X236976666Y-53948357D01*
X237071904Y-53995976D01*
X237167142Y-53995976D01*
X237262380Y-53948357D01*
X237310000Y-53900738D01*
X237357619Y-53805500D01*
X237357619Y-53567404D01*
X237310000Y-53424547D01*
X237357619Y-52805500D02*
X237357619Y-52615023D01*
X237310000Y-52519785D01*
X237214761Y-52424547D01*
X237024285Y-52376928D01*
X236690952Y-52376928D01*
X236500476Y-52424547D01*
X236405238Y-52519785D01*
X236357619Y-52615023D01*
X236357619Y-52805500D01*
X236405238Y-52900738D01*
X236500476Y-52995976D01*
X236690952Y-53043595D01*
X237024285Y-53043595D01*
X237214761Y-52995976D01*
X237310000Y-52900738D01*
X237357619Y-52805500D01*
X244025238Y-115615023D02*
X243977619Y-115472166D01*
X243977619Y-115234071D01*
X244025238Y-115138833D01*
X244072857Y-115091214D01*
X244168095Y-115043595D01*
X244263333Y-115043595D01*
X244358571Y-115091214D01*
X244406190Y-115138833D01*
X244453809Y-115234071D01*
X244501428Y-115424547D01*
X244549047Y-115519785D01*
X244596666Y-115567404D01*
X244691904Y-115615023D01*
X244787142Y-115615023D01*
X244882380Y-115567404D01*
X244930000Y-115519785D01*
X244977619Y-115424547D01*
X244977619Y-115186452D01*
X244930000Y-115043595D01*
X244072857Y-114043595D02*
X244025238Y-114091214D01*
X243977619Y-114234071D01*
X243977619Y-114329309D01*
X244025238Y-114472166D01*
X244120476Y-114567404D01*
X244215714Y-114615023D01*
X244406190Y-114662642D01*
X244549047Y-114662642D01*
X244739523Y-114615023D01*
X244834761Y-114567404D01*
X244930000Y-114472166D01*
X244977619Y-114329309D01*
X244977619Y-114234071D01*
X244930000Y-114091214D01*
X244882380Y-114043595D01*
X243977619Y-113615023D02*
X244977619Y-113615023D01*
X243977619Y-113043595D02*
X244549047Y-113472166D01*
X244977619Y-113043595D02*
X244406190Y-113615023D01*
X194025238Y-115615023D02*
X193977619Y-115472166D01*
X193977619Y-115234071D01*
X194025238Y-115138833D01*
X194072857Y-115091214D01*
X194168095Y-115043595D01*
X194263333Y-115043595D01*
X194358571Y-115091214D01*
X194406190Y-115138833D01*
X194453809Y-115234071D01*
X194501428Y-115424547D01*
X194549047Y-115519785D01*
X194596666Y-115567404D01*
X194691904Y-115615023D01*
X194787142Y-115615023D01*
X194882380Y-115567404D01*
X194930000Y-115519785D01*
X194977619Y-115424547D01*
X194977619Y-115186452D01*
X194930000Y-115043595D01*
X194072857Y-114043595D02*
X194025238Y-114091214D01*
X193977619Y-114234071D01*
X193977619Y-114329309D01*
X194025238Y-114472166D01*
X194120476Y-114567404D01*
X194215714Y-114615023D01*
X194406190Y-114662642D01*
X194549047Y-114662642D01*
X194739523Y-114615023D01*
X194834761Y-114567404D01*
X194930000Y-114472166D01*
X194977619Y-114329309D01*
X194977619Y-114234071D01*
X194930000Y-114091214D01*
X194882380Y-114043595D01*
X193977619Y-113615023D02*
X194977619Y-113615023D01*
X193977619Y-113043595D02*
X194549047Y-113472166D01*
X194977619Y-113043595D02*
X194406190Y-113615023D01*
X244025238Y-85615023D02*
X243977619Y-85472166D01*
X243977619Y-85234071D01*
X244025238Y-85138833D01*
X244072857Y-85091214D01*
X244168095Y-85043595D01*
X244263333Y-85043595D01*
X244358571Y-85091214D01*
X244406190Y-85138833D01*
X244453809Y-85234071D01*
X244501428Y-85424547D01*
X244549047Y-85519785D01*
X244596666Y-85567404D01*
X244691904Y-85615023D01*
X244787142Y-85615023D01*
X244882380Y-85567404D01*
X244930000Y-85519785D01*
X244977619Y-85424547D01*
X244977619Y-85186452D01*
X244930000Y-85043595D01*
X244072857Y-84043595D02*
X244025238Y-84091214D01*
X243977619Y-84234071D01*
X243977619Y-84329309D01*
X244025238Y-84472166D01*
X244120476Y-84567404D01*
X244215714Y-84615023D01*
X244406190Y-84662642D01*
X244549047Y-84662642D01*
X244739523Y-84615023D01*
X244834761Y-84567404D01*
X244930000Y-84472166D01*
X244977619Y-84329309D01*
X244977619Y-84234071D01*
X244930000Y-84091214D01*
X244882380Y-84043595D01*
X243977619Y-83615023D02*
X244977619Y-83615023D01*
X243977619Y-83043595D02*
X244549047Y-83472166D01*
X244977619Y-83043595D02*
X244406190Y-83615023D01*
X194025238Y-85615023D02*
X193977619Y-85472166D01*
X193977619Y-85234071D01*
X194025238Y-85138833D01*
X194072857Y-85091214D01*
X194168095Y-85043595D01*
X194263333Y-85043595D01*
X194358571Y-85091214D01*
X194406190Y-85138833D01*
X194453809Y-85234071D01*
X194501428Y-85424547D01*
X194549047Y-85519785D01*
X194596666Y-85567404D01*
X194691904Y-85615023D01*
X194787142Y-85615023D01*
X194882380Y-85567404D01*
X194930000Y-85519785D01*
X194977619Y-85424547D01*
X194977619Y-85186452D01*
X194930000Y-85043595D01*
X194072857Y-84043595D02*
X194025238Y-84091214D01*
X193977619Y-84234071D01*
X193977619Y-84329309D01*
X194025238Y-84472166D01*
X194120476Y-84567404D01*
X194215714Y-84615023D01*
X194406190Y-84662642D01*
X194549047Y-84662642D01*
X194739523Y-84615023D01*
X194834761Y-84567404D01*
X194930000Y-84472166D01*
X194977619Y-84329309D01*
X194977619Y-84234071D01*
X194930000Y-84091214D01*
X194882380Y-84043595D01*
X193977619Y-83615023D02*
X194977619Y-83615023D01*
X193977619Y-83043595D02*
X194549047Y-83472166D01*
X194977619Y-83043595D02*
X194406190Y-83615023D01*
X244025238Y-55615023D02*
X243977619Y-55472166D01*
X243977619Y-55234071D01*
X244025238Y-55138833D01*
X244072857Y-55091214D01*
X244168095Y-55043595D01*
X244263333Y-55043595D01*
X244358571Y-55091214D01*
X244406190Y-55138833D01*
X244453809Y-55234071D01*
X244501428Y-55424547D01*
X244549047Y-55519785D01*
X244596666Y-55567404D01*
X244691904Y-55615023D01*
X244787142Y-55615023D01*
X244882380Y-55567404D01*
X244930000Y-55519785D01*
X244977619Y-55424547D01*
X244977619Y-55186452D01*
X244930000Y-55043595D01*
X244072857Y-54043595D02*
X244025238Y-54091214D01*
X243977619Y-54234071D01*
X243977619Y-54329309D01*
X244025238Y-54472166D01*
X244120476Y-54567404D01*
X244215714Y-54615023D01*
X244406190Y-54662642D01*
X244549047Y-54662642D01*
X244739523Y-54615023D01*
X244834761Y-54567404D01*
X244930000Y-54472166D01*
X244977619Y-54329309D01*
X244977619Y-54234071D01*
X244930000Y-54091214D01*
X244882380Y-54043595D01*
X243977619Y-53615023D02*
X244977619Y-53615023D01*
X243977619Y-53043595D02*
X244549047Y-53472166D01*
X244977619Y-53043595D02*
X244406190Y-53615023D01*
X227257904Y-136933000D02*
X226257904Y-136933000D01*
X226448380Y-138430380D02*
X226781714Y-137954190D01*
X227019809Y-138430380D02*
X227019809Y-137430380D01*
X226638857Y-137430380D01*
X226543619Y-137478000D01*
X226496000Y-137525619D01*
X226448380Y-137620857D01*
X226448380Y-137763714D01*
X226496000Y-137858952D01*
X226543619Y-137906571D01*
X226638857Y-137954190D01*
X227019809Y-137954190D01*
X226257904Y-136933000D02*
X225353142Y-136933000D01*
X226019809Y-137906571D02*
X225686476Y-137906571D01*
X225543619Y-138430380D02*
X226019809Y-138430380D01*
X226019809Y-137430380D01*
X225543619Y-137430380D01*
X225353142Y-136933000D02*
X224400761Y-136933000D01*
X225162666Y-138382761D02*
X225019809Y-138430380D01*
X224781714Y-138430380D01*
X224686476Y-138382761D01*
X224638857Y-138335142D01*
X224591238Y-138239904D01*
X224591238Y-138144666D01*
X224638857Y-138049428D01*
X224686476Y-138001809D01*
X224781714Y-137954190D01*
X224972190Y-137906571D01*
X225067428Y-137858952D01*
X225115047Y-137811333D01*
X225162666Y-137716095D01*
X225162666Y-137620857D01*
X225115047Y-137525619D01*
X225067428Y-137478000D01*
X224972190Y-137430380D01*
X224734095Y-137430380D01*
X224591238Y-137478000D01*
X224400761Y-136933000D02*
X223496000Y-136933000D01*
X224162666Y-137906571D02*
X223829333Y-137906571D01*
X223686476Y-138430380D02*
X224162666Y-138430380D01*
X224162666Y-137430380D01*
X223686476Y-137430380D01*
X223496000Y-136933000D02*
X222734095Y-136933000D01*
X223400761Y-137430380D02*
X222829333Y-137430380D01*
X223115047Y-138430380D02*
X223115047Y-137430380D01*
X177257904Y-136933000D02*
X176257904Y-136933000D01*
X176448380Y-138430380D02*
X176781714Y-137954190D01*
X177019809Y-138430380D02*
X177019809Y-137430380D01*
X176638857Y-137430380D01*
X176543619Y-137478000D01*
X176496000Y-137525619D01*
X176448380Y-137620857D01*
X176448380Y-137763714D01*
X176496000Y-137858952D01*
X176543619Y-137906571D01*
X176638857Y-137954190D01*
X177019809Y-137954190D01*
X176257904Y-136933000D02*
X175353142Y-136933000D01*
X176019809Y-137906571D02*
X175686476Y-137906571D01*
X175543619Y-138430380D02*
X176019809Y-138430380D01*
X176019809Y-137430380D01*
X175543619Y-137430380D01*
X175353142Y-136933000D02*
X174400761Y-136933000D01*
X175162666Y-138382761D02*
X175019809Y-138430380D01*
X174781714Y-138430380D01*
X174686476Y-138382761D01*
X174638857Y-138335142D01*
X174591238Y-138239904D01*
X174591238Y-138144666D01*
X174638857Y-138049428D01*
X174686476Y-138001809D01*
X174781714Y-137954190D01*
X174972190Y-137906571D01*
X175067428Y-137858952D01*
X175115047Y-137811333D01*
X175162666Y-137716095D01*
X175162666Y-137620857D01*
X175115047Y-137525619D01*
X175067428Y-137478000D01*
X174972190Y-137430380D01*
X174734095Y-137430380D01*
X174591238Y-137478000D01*
X174400761Y-136933000D02*
X173496000Y-136933000D01*
X174162666Y-137906571D02*
X173829333Y-137906571D01*
X173686476Y-138430380D02*
X174162666Y-138430380D01*
X174162666Y-137430380D01*
X173686476Y-137430380D01*
X173496000Y-136933000D02*
X172734095Y-136933000D01*
X173400761Y-137430380D02*
X172829333Y-137430380D01*
X173115047Y-138430380D02*
X173115047Y-137430380D01*
X227257904Y-106933000D02*
X226257904Y-106933000D01*
X226448380Y-108430380D02*
X226781714Y-107954190D01*
X227019809Y-108430380D02*
X227019809Y-107430380D01*
X226638857Y-107430380D01*
X226543619Y-107478000D01*
X226496000Y-107525619D01*
X226448380Y-107620857D01*
X226448380Y-107763714D01*
X226496000Y-107858952D01*
X226543619Y-107906571D01*
X226638857Y-107954190D01*
X227019809Y-107954190D01*
X226257904Y-106933000D02*
X225353142Y-106933000D01*
X226019809Y-107906571D02*
X225686476Y-107906571D01*
X225543619Y-108430380D02*
X226019809Y-108430380D01*
X226019809Y-107430380D01*
X225543619Y-107430380D01*
X225353142Y-106933000D02*
X224400761Y-106933000D01*
X225162666Y-108382761D02*
X225019809Y-108430380D01*
X224781714Y-108430380D01*
X224686476Y-108382761D01*
X224638857Y-108335142D01*
X224591238Y-108239904D01*
X224591238Y-108144666D01*
X224638857Y-108049428D01*
X224686476Y-108001809D01*
X224781714Y-107954190D01*
X224972190Y-107906571D01*
X225067428Y-107858952D01*
X225115047Y-107811333D01*
X225162666Y-107716095D01*
X225162666Y-107620857D01*
X225115047Y-107525619D01*
X225067428Y-107478000D01*
X224972190Y-107430380D01*
X224734095Y-107430380D01*
X224591238Y-107478000D01*
X224400761Y-106933000D02*
X223496000Y-106933000D01*
X224162666Y-107906571D02*
X223829333Y-107906571D01*
X223686476Y-108430380D02*
X224162666Y-108430380D01*
X224162666Y-107430380D01*
X223686476Y-107430380D01*
X223496000Y-106933000D02*
X222734095Y-106933000D01*
X223400761Y-107430380D02*
X222829333Y-107430380D01*
X223115047Y-108430380D02*
X223115047Y-107430380D01*
X177257904Y-106933000D02*
X176257904Y-106933000D01*
X176448380Y-108430380D02*
X176781714Y-107954190D01*
X177019809Y-108430380D02*
X177019809Y-107430380D01*
X176638857Y-107430380D01*
X176543619Y-107478000D01*
X176496000Y-107525619D01*
X176448380Y-107620857D01*
X176448380Y-107763714D01*
X176496000Y-107858952D01*
X176543619Y-107906571D01*
X176638857Y-107954190D01*
X177019809Y-107954190D01*
X176257904Y-106933000D02*
X175353142Y-106933000D01*
X176019809Y-107906571D02*
X175686476Y-107906571D01*
X175543619Y-108430380D02*
X176019809Y-108430380D01*
X176019809Y-107430380D01*
X175543619Y-107430380D01*
X175353142Y-106933000D02*
X174400761Y-106933000D01*
X175162666Y-108382761D02*
X175019809Y-108430380D01*
X174781714Y-108430380D01*
X174686476Y-108382761D01*
X174638857Y-108335142D01*
X174591238Y-108239904D01*
X174591238Y-108144666D01*
X174638857Y-108049428D01*
X174686476Y-108001809D01*
X174781714Y-107954190D01*
X174972190Y-107906571D01*
X175067428Y-107858952D01*
X175115047Y-107811333D01*
X175162666Y-107716095D01*
X175162666Y-107620857D01*
X175115047Y-107525619D01*
X175067428Y-107478000D01*
X174972190Y-107430380D01*
X174734095Y-107430380D01*
X174591238Y-107478000D01*
X174400761Y-106933000D02*
X173496000Y-106933000D01*
X174162666Y-107906571D02*
X173829333Y-107906571D01*
X173686476Y-108430380D02*
X174162666Y-108430380D01*
X174162666Y-107430380D01*
X173686476Y-107430380D01*
X173496000Y-106933000D02*
X172734095Y-106933000D01*
X173400761Y-107430380D02*
X172829333Y-107430380D01*
X173115047Y-108430380D02*
X173115047Y-107430380D01*
X227257904Y-76933000D02*
X226257904Y-76933000D01*
X226448380Y-78430380D02*
X226781714Y-77954190D01*
X227019809Y-78430380D02*
X227019809Y-77430380D01*
X226638857Y-77430380D01*
X226543619Y-77478000D01*
X226496000Y-77525619D01*
X226448380Y-77620857D01*
X226448380Y-77763714D01*
X226496000Y-77858952D01*
X226543619Y-77906571D01*
X226638857Y-77954190D01*
X227019809Y-77954190D01*
X226257904Y-76933000D02*
X225353142Y-76933000D01*
X226019809Y-77906571D02*
X225686476Y-77906571D01*
X225543619Y-78430380D02*
X226019809Y-78430380D01*
X226019809Y-77430380D01*
X225543619Y-77430380D01*
X225353142Y-76933000D02*
X224400761Y-76933000D01*
X225162666Y-78382761D02*
X225019809Y-78430380D01*
X224781714Y-78430380D01*
X224686476Y-78382761D01*
X224638857Y-78335142D01*
X224591238Y-78239904D01*
X224591238Y-78144666D01*
X224638857Y-78049428D01*
X224686476Y-78001809D01*
X224781714Y-77954190D01*
X224972190Y-77906571D01*
X225067428Y-77858952D01*
X225115047Y-77811333D01*
X225162666Y-77716095D01*
X225162666Y-77620857D01*
X225115047Y-77525619D01*
X225067428Y-77478000D01*
X224972190Y-77430380D01*
X224734095Y-77430380D01*
X224591238Y-77478000D01*
X224400761Y-76933000D02*
X223496000Y-76933000D01*
X224162666Y-77906571D02*
X223829333Y-77906571D01*
X223686476Y-78430380D02*
X224162666Y-78430380D01*
X224162666Y-77430380D01*
X223686476Y-77430380D01*
X223496000Y-76933000D02*
X222734095Y-76933000D01*
X223400761Y-77430380D02*
X222829333Y-77430380D01*
X223115047Y-78430380D02*
X223115047Y-77430380D01*
D11*
X243872285Y-123927571D02*
X243872285Y-122427571D01*
X242658000Y-123141857D02*
X242443714Y-123213285D01*
X242372285Y-123284714D01*
X242300857Y-123427571D01*
X242300857Y-123641857D01*
X242372285Y-123784714D01*
X242443714Y-123856142D01*
X242586571Y-123927571D01*
X243158000Y-123927571D01*
X243158000Y-122427571D01*
X242658000Y-122427571D01*
X242515142Y-122499000D01*
X242443714Y-122570428D01*
X242372285Y-122713285D01*
X242372285Y-122856142D01*
X242443714Y-122999000D01*
X242515142Y-123070428D01*
X242658000Y-123141857D01*
X243158000Y-123141857D01*
X241658000Y-123927571D02*
X241658000Y-122427571D01*
X241158000Y-123499000D01*
X240658000Y-122427571D01*
X240658000Y-123927571D01*
X239943714Y-123356142D02*
X238800857Y-123356142D01*
X237372285Y-122427571D02*
X238086571Y-122427571D01*
X238158000Y-123141857D01*
X238086571Y-123070428D01*
X237943714Y-122999000D01*
X237586571Y-122999000D01*
X237443714Y-123070428D01*
X237372285Y-123141857D01*
X237300857Y-123284714D01*
X237300857Y-123641857D01*
X237372285Y-123784714D01*
X237443714Y-123856142D01*
X237586571Y-123927571D01*
X237943714Y-123927571D01*
X238086571Y-123856142D01*
X238158000Y-123784714D01*
X236729428Y-122570428D02*
X236658000Y-122499000D01*
X236515142Y-122427571D01*
X236158000Y-122427571D01*
X236015142Y-122499000D01*
X235943714Y-122570428D01*
X235872285Y-122713285D01*
X235872285Y-122856142D01*
X235943714Y-123070428D01*
X236800857Y-123927571D01*
X235872285Y-123927571D01*
X235158000Y-123927571D02*
X234872285Y-123927571D01*
X234729428Y-123856142D01*
X234658000Y-123784714D01*
X234515142Y-123570428D01*
X234443714Y-123284714D01*
X234443714Y-122713285D01*
X234515142Y-122570428D01*
X234586571Y-122499000D01*
X234729428Y-122427571D01*
X235015142Y-122427571D01*
X235158000Y-122499000D01*
X235229428Y-122570428D01*
X235300857Y-122713285D01*
X235300857Y-123070428D01*
X235229428Y-123213285D01*
X235158000Y-123284714D01*
X235015142Y-123356142D01*
X234729428Y-123356142D01*
X234586571Y-123284714D01*
X234515142Y-123213285D01*
X234443714Y-123070428D01*
X233015142Y-123927571D02*
X233872285Y-123927571D01*
X233443714Y-123927571D02*
X233443714Y-122427571D01*
X233586571Y-122641857D01*
X233729428Y-122784714D01*
X233872285Y-122856142D01*
X231229428Y-123927571D02*
X231229428Y-122427571D01*
X231086571Y-123356142D02*
X230658000Y-123927571D01*
X230658000Y-122927571D02*
X231229428Y-123499000D01*
X229443714Y-123856142D02*
X229586571Y-123927571D01*
X229872285Y-123927571D01*
X230015142Y-123856142D01*
X230086571Y-123713285D01*
X230086571Y-123141857D01*
X230015142Y-122999000D01*
X229872285Y-122927571D01*
X229586571Y-122927571D01*
X229443714Y-122999000D01*
X229372285Y-123141857D01*
X229372285Y-123284714D01*
X230086571Y-123427571D01*
X228872285Y-122927571D02*
X228515142Y-123927571D01*
X228158000Y-122927571D02*
X228515142Y-123927571D01*
X228658000Y-124284714D01*
X228729428Y-124356142D01*
X228872285Y-124427571D01*
X227586571Y-123927571D02*
X227586571Y-122427571D01*
X227586571Y-122999000D02*
X227443714Y-122927571D01*
X227158000Y-122927571D01*
X227015142Y-122999000D01*
X226943714Y-123070428D01*
X226872285Y-123213285D01*
X226872285Y-123641857D01*
X226943714Y-123784714D01*
X227015142Y-123856142D01*
X227158000Y-123927571D01*
X227443714Y-123927571D01*
X227586571Y-123856142D01*
X226015142Y-123927571D02*
X226158000Y-123856142D01*
X226229428Y-123784714D01*
X226300857Y-123641857D01*
X226300857Y-123213285D01*
X226229428Y-123070428D01*
X226158000Y-122999000D01*
X226015142Y-122927571D01*
X225800857Y-122927571D01*
X225658000Y-122999000D01*
X225586571Y-123070428D01*
X225515142Y-123213285D01*
X225515142Y-123641857D01*
X225586571Y-123784714D01*
X225658000Y-123856142D01*
X225800857Y-123927571D01*
X226015142Y-123927571D01*
X224229428Y-123927571D02*
X224229428Y-123141857D01*
X224300857Y-122999000D01*
X224443714Y-122927571D01*
X224729428Y-122927571D01*
X224872285Y-122999000D01*
X224229428Y-123856142D02*
X224372285Y-123927571D01*
X224729428Y-123927571D01*
X224872285Y-123856142D01*
X224943714Y-123713285D01*
X224943714Y-123570428D01*
X224872285Y-123427571D01*
X224729428Y-123356142D01*
X224372285Y-123356142D01*
X224229428Y-123284714D01*
X223515142Y-123927571D02*
X223515142Y-122927571D01*
X223515142Y-123213285D02*
X223443714Y-123070428D01*
X223372285Y-122999000D01*
X223229428Y-122927571D01*
X223086571Y-122927571D01*
X221943714Y-123927571D02*
X221943714Y-122427571D01*
X221943714Y-123856142D02*
X222086571Y-123927571D01*
X222372285Y-123927571D01*
X222515142Y-123856142D01*
X222586571Y-123784714D01*
X222658000Y-123641857D01*
X222658000Y-123213285D01*
X222586571Y-123070428D01*
X222515142Y-122999000D01*
X222372285Y-122927571D01*
X222086571Y-122927571D01*
X221943714Y-122999000D01*
X242872285Y-124977571D02*
X242872285Y-126191857D01*
X242800857Y-126334714D01*
X242729428Y-126406142D01*
X242586571Y-126477571D01*
X242300857Y-126477571D01*
X242158000Y-126406142D01*
X242086571Y-126334714D01*
X242015142Y-126191857D01*
X242015142Y-124977571D01*
X241372285Y-126406142D02*
X241158000Y-126477571D01*
X240800857Y-126477571D01*
X240658000Y-126406142D01*
X240586571Y-126334714D01*
X240515142Y-126191857D01*
X240515142Y-126049000D01*
X240586571Y-125906142D01*
X240658000Y-125834714D01*
X240800857Y-125763285D01*
X241086571Y-125691857D01*
X241229428Y-125620428D01*
X241300857Y-125549000D01*
X241372285Y-125406142D01*
X241372285Y-125263285D01*
X241300857Y-125120428D01*
X241229428Y-125049000D01*
X241086571Y-124977571D01*
X240729428Y-124977571D01*
X240515142Y-125049000D01*
X239372285Y-125691857D02*
X239158000Y-125763285D01*
X239086571Y-125834714D01*
X239015142Y-125977571D01*
X239015142Y-126191857D01*
X239086571Y-126334714D01*
X239158000Y-126406142D01*
X239300857Y-126477571D01*
X239872285Y-126477571D01*
X239872285Y-124977571D01*
X239372285Y-124977571D01*
X239229428Y-125049000D01*
X239158000Y-125120428D01*
X239086571Y-125263285D01*
X239086571Y-125406142D01*
X239158000Y-125549000D01*
X239229428Y-125620428D01*
X239372285Y-125691857D01*
X239872285Y-125691857D01*
X236586571Y-126406142D02*
X236729428Y-126477571D01*
X237015142Y-126477571D01*
X237158000Y-126406142D01*
X237229428Y-126334714D01*
X237300857Y-126191857D01*
X237300857Y-125763285D01*
X237229428Y-125620428D01*
X237158000Y-125549000D01*
X237015142Y-125477571D01*
X236729428Y-125477571D01*
X236586571Y-125549000D01*
X235729428Y-126477571D02*
X235872285Y-126406142D01*
X235943714Y-126334714D01*
X236015142Y-126191857D01*
X236015142Y-125763285D01*
X235943714Y-125620428D01*
X235872285Y-125549000D01*
X235729428Y-125477571D01*
X235515142Y-125477571D01*
X235372285Y-125549000D01*
X235300857Y-125620428D01*
X235229428Y-125763285D01*
X235229428Y-126191857D01*
X235300857Y-126334714D01*
X235372285Y-126406142D01*
X235515142Y-126477571D01*
X235729428Y-126477571D01*
X234586571Y-125477571D02*
X234586571Y-126477571D01*
X234586571Y-125620428D02*
X234515142Y-125549000D01*
X234372285Y-125477571D01*
X234158000Y-125477571D01*
X234015142Y-125549000D01*
X233943714Y-125691857D01*
X233943714Y-126477571D01*
X233443714Y-125477571D02*
X232872285Y-125477571D01*
X233229428Y-124977571D02*
X233229428Y-126263285D01*
X233158000Y-126406142D01*
X233015142Y-126477571D01*
X232872285Y-126477571D01*
X232372285Y-126477571D02*
X232372285Y-125477571D01*
X232372285Y-125763285D02*
X232300857Y-125620428D01*
X232229428Y-125549000D01*
X232086571Y-125477571D01*
X231943714Y-125477571D01*
X231229428Y-126477571D02*
X231372285Y-126406142D01*
X231443714Y-126334714D01*
X231515142Y-126191857D01*
X231515142Y-125763285D01*
X231443714Y-125620428D01*
X231372285Y-125549000D01*
X231229428Y-125477571D01*
X231015142Y-125477571D01*
X230872285Y-125549000D01*
X230800857Y-125620428D01*
X230729428Y-125763285D01*
X230729428Y-126191857D01*
X230800857Y-126334714D01*
X230872285Y-126406142D01*
X231015142Y-126477571D01*
X231229428Y-126477571D01*
X229872285Y-126477571D02*
X230015142Y-126406142D01*
X230086571Y-126263285D01*
X230086571Y-124977571D01*
X229086571Y-126477571D02*
X229229428Y-126406142D01*
X229300857Y-126263285D01*
X229300857Y-124977571D01*
X227943714Y-126406142D02*
X228086571Y-126477571D01*
X228372285Y-126477571D01*
X228515142Y-126406142D01*
X228586571Y-126263285D01*
X228586571Y-125691857D01*
X228515142Y-125549000D01*
X228372285Y-125477571D01*
X228086571Y-125477571D01*
X227943714Y-125549000D01*
X227872285Y-125691857D01*
X227872285Y-125834714D01*
X228586571Y-125977571D01*
X227229428Y-126477571D02*
X227229428Y-125477571D01*
X227229428Y-125763285D02*
X227158000Y-125620428D01*
X227086571Y-125549000D01*
X226943714Y-125477571D01*
X226800857Y-125477571D01*
X224300857Y-126477571D02*
X224800857Y-125763285D01*
X225158000Y-126477571D02*
X225158000Y-124977571D01*
X224586571Y-124977571D01*
X224443714Y-125049000D01*
X224372285Y-125120428D01*
X224300857Y-125263285D01*
X224300857Y-125477571D01*
X224372285Y-125620428D01*
X224443714Y-125691857D01*
X224586571Y-125763285D01*
X225158000Y-125763285D01*
X222872285Y-126477571D02*
X223729428Y-126477571D01*
X223300857Y-126477571D02*
X223300857Y-124977571D01*
X223443714Y-125191857D01*
X223586571Y-125334714D01*
X223729428Y-125406142D01*
X193872285Y-123927571D02*
X193872285Y-122427571D01*
X192658000Y-123141857D02*
X192443714Y-123213285D01*
X192372285Y-123284714D01*
X192300857Y-123427571D01*
X192300857Y-123641857D01*
X192372285Y-123784714D01*
X192443714Y-123856142D01*
X192586571Y-123927571D01*
X193158000Y-123927571D01*
X193158000Y-122427571D01*
X192658000Y-122427571D01*
X192515142Y-122499000D01*
X192443714Y-122570428D01*
X192372285Y-122713285D01*
X192372285Y-122856142D01*
X192443714Y-122999000D01*
X192515142Y-123070428D01*
X192658000Y-123141857D01*
X193158000Y-123141857D01*
X191658000Y-123927571D02*
X191658000Y-122427571D01*
X191158000Y-123499000D01*
X190658000Y-122427571D01*
X190658000Y-123927571D01*
X189943714Y-123356142D02*
X188800857Y-123356142D01*
X187372285Y-122427571D02*
X188086571Y-122427571D01*
X188158000Y-123141857D01*
X188086571Y-123070428D01*
X187943714Y-122999000D01*
X187586571Y-122999000D01*
X187443714Y-123070428D01*
X187372285Y-123141857D01*
X187300857Y-123284714D01*
X187300857Y-123641857D01*
X187372285Y-123784714D01*
X187443714Y-123856142D01*
X187586571Y-123927571D01*
X187943714Y-123927571D01*
X188086571Y-123856142D01*
X188158000Y-123784714D01*
X186729428Y-122570428D02*
X186658000Y-122499000D01*
X186515142Y-122427571D01*
X186158000Y-122427571D01*
X186015142Y-122499000D01*
X185943714Y-122570428D01*
X185872285Y-122713285D01*
X185872285Y-122856142D01*
X185943714Y-123070428D01*
X186800857Y-123927571D01*
X185872285Y-123927571D01*
X185158000Y-123927571D02*
X184872285Y-123927571D01*
X184729428Y-123856142D01*
X184658000Y-123784714D01*
X184515142Y-123570428D01*
X184443714Y-123284714D01*
X184443714Y-122713285D01*
X184515142Y-122570428D01*
X184586571Y-122499000D01*
X184729428Y-122427571D01*
X185015142Y-122427571D01*
X185158000Y-122499000D01*
X185229428Y-122570428D01*
X185300857Y-122713285D01*
X185300857Y-123070428D01*
X185229428Y-123213285D01*
X185158000Y-123284714D01*
X185015142Y-123356142D01*
X184729428Y-123356142D01*
X184586571Y-123284714D01*
X184515142Y-123213285D01*
X184443714Y-123070428D01*
X183015142Y-123927571D02*
X183872285Y-123927571D01*
X183443714Y-123927571D02*
X183443714Y-122427571D01*
X183586571Y-122641857D01*
X183729428Y-122784714D01*
X183872285Y-122856142D01*
X181229428Y-123927571D02*
X181229428Y-122427571D01*
X181086571Y-123356142D02*
X180658000Y-123927571D01*
X180658000Y-122927571D02*
X181229428Y-123499000D01*
X179443714Y-123856142D02*
X179586571Y-123927571D01*
X179872285Y-123927571D01*
X180015142Y-123856142D01*
X180086571Y-123713285D01*
X180086571Y-123141857D01*
X180015142Y-122999000D01*
X179872285Y-122927571D01*
X179586571Y-122927571D01*
X179443714Y-122999000D01*
X179372285Y-123141857D01*
X179372285Y-123284714D01*
X180086571Y-123427571D01*
X178872285Y-122927571D02*
X178515142Y-123927571D01*
X178158000Y-122927571D02*
X178515142Y-123927571D01*
X178658000Y-124284714D01*
X178729428Y-124356142D01*
X178872285Y-124427571D01*
X177586571Y-123927571D02*
X177586571Y-122427571D01*
X177586571Y-122999000D02*
X177443714Y-122927571D01*
X177158000Y-122927571D01*
X177015142Y-122999000D01*
X176943714Y-123070428D01*
X176872285Y-123213285D01*
X176872285Y-123641857D01*
X176943714Y-123784714D01*
X177015142Y-123856142D01*
X177158000Y-123927571D01*
X177443714Y-123927571D01*
X177586571Y-123856142D01*
X176015142Y-123927571D02*
X176158000Y-123856142D01*
X176229428Y-123784714D01*
X176300857Y-123641857D01*
X176300857Y-123213285D01*
X176229428Y-123070428D01*
X176158000Y-122999000D01*
X176015142Y-122927571D01*
X175800857Y-122927571D01*
X175658000Y-122999000D01*
X175586571Y-123070428D01*
X175515142Y-123213285D01*
X175515142Y-123641857D01*
X175586571Y-123784714D01*
X175658000Y-123856142D01*
X175800857Y-123927571D01*
X176015142Y-123927571D01*
X174229428Y-123927571D02*
X174229428Y-123141857D01*
X174300857Y-122999000D01*
X174443714Y-122927571D01*
X174729428Y-122927571D01*
X174872285Y-122999000D01*
X174229428Y-123856142D02*
X174372285Y-123927571D01*
X174729428Y-123927571D01*
X174872285Y-123856142D01*
X174943714Y-123713285D01*
X174943714Y-123570428D01*
X174872285Y-123427571D01*
X174729428Y-123356142D01*
X174372285Y-123356142D01*
X174229428Y-123284714D01*
X173515142Y-123927571D02*
X173515142Y-122927571D01*
X173515142Y-123213285D02*
X173443714Y-123070428D01*
X173372285Y-122999000D01*
X173229428Y-122927571D01*
X173086571Y-122927571D01*
X171943714Y-123927571D02*
X171943714Y-122427571D01*
X171943714Y-123856142D02*
X172086571Y-123927571D01*
X172372285Y-123927571D01*
X172515142Y-123856142D01*
X172586571Y-123784714D01*
X172658000Y-123641857D01*
X172658000Y-123213285D01*
X172586571Y-123070428D01*
X172515142Y-122999000D01*
X172372285Y-122927571D01*
X172086571Y-122927571D01*
X171943714Y-122999000D01*
X192872285Y-124977571D02*
X192872285Y-126191857D01*
X192800857Y-126334714D01*
X192729428Y-126406142D01*
X192586571Y-126477571D01*
X192300857Y-126477571D01*
X192158000Y-126406142D01*
X192086571Y-126334714D01*
X192015142Y-126191857D01*
X192015142Y-124977571D01*
X191372285Y-126406142D02*
X191158000Y-126477571D01*
X190800857Y-126477571D01*
X190658000Y-126406142D01*
X190586571Y-126334714D01*
X190515142Y-126191857D01*
X190515142Y-126049000D01*
X190586571Y-125906142D01*
X190658000Y-125834714D01*
X190800857Y-125763285D01*
X191086571Y-125691857D01*
X191229428Y-125620428D01*
X191300857Y-125549000D01*
X191372285Y-125406142D01*
X191372285Y-125263285D01*
X191300857Y-125120428D01*
X191229428Y-125049000D01*
X191086571Y-124977571D01*
X190729428Y-124977571D01*
X190515142Y-125049000D01*
X189372285Y-125691857D02*
X189158000Y-125763285D01*
X189086571Y-125834714D01*
X189015142Y-125977571D01*
X189015142Y-126191857D01*
X189086571Y-126334714D01*
X189158000Y-126406142D01*
X189300857Y-126477571D01*
X189872285Y-126477571D01*
X189872285Y-124977571D01*
X189372285Y-124977571D01*
X189229428Y-125049000D01*
X189158000Y-125120428D01*
X189086571Y-125263285D01*
X189086571Y-125406142D01*
X189158000Y-125549000D01*
X189229428Y-125620428D01*
X189372285Y-125691857D01*
X189872285Y-125691857D01*
X186586571Y-126406142D02*
X186729428Y-126477571D01*
X187015142Y-126477571D01*
X187158000Y-126406142D01*
X187229428Y-126334714D01*
X187300857Y-126191857D01*
X187300857Y-125763285D01*
X187229428Y-125620428D01*
X187158000Y-125549000D01*
X187015142Y-125477571D01*
X186729428Y-125477571D01*
X186586571Y-125549000D01*
X185729428Y-126477571D02*
X185872285Y-126406142D01*
X185943714Y-126334714D01*
X186015142Y-126191857D01*
X186015142Y-125763285D01*
X185943714Y-125620428D01*
X185872285Y-125549000D01*
X185729428Y-125477571D01*
X185515142Y-125477571D01*
X185372285Y-125549000D01*
X185300857Y-125620428D01*
X185229428Y-125763285D01*
X185229428Y-126191857D01*
X185300857Y-126334714D01*
X185372285Y-126406142D01*
X185515142Y-126477571D01*
X185729428Y-126477571D01*
X184586571Y-125477571D02*
X184586571Y-126477571D01*
X184586571Y-125620428D02*
X184515142Y-125549000D01*
X184372285Y-125477571D01*
X184158000Y-125477571D01*
X184015142Y-125549000D01*
X183943714Y-125691857D01*
X183943714Y-126477571D01*
X183443714Y-125477571D02*
X182872285Y-125477571D01*
X183229428Y-124977571D02*
X183229428Y-126263285D01*
X183158000Y-126406142D01*
X183015142Y-126477571D01*
X182872285Y-126477571D01*
X182372285Y-126477571D02*
X182372285Y-125477571D01*
X182372285Y-125763285D02*
X182300857Y-125620428D01*
X182229428Y-125549000D01*
X182086571Y-125477571D01*
X181943714Y-125477571D01*
X181229428Y-126477571D02*
X181372285Y-126406142D01*
X181443714Y-126334714D01*
X181515142Y-126191857D01*
X181515142Y-125763285D01*
X181443714Y-125620428D01*
X181372285Y-125549000D01*
X181229428Y-125477571D01*
X181015142Y-125477571D01*
X180872285Y-125549000D01*
X180800857Y-125620428D01*
X180729428Y-125763285D01*
X180729428Y-126191857D01*
X180800857Y-126334714D01*
X180872285Y-126406142D01*
X181015142Y-126477571D01*
X181229428Y-126477571D01*
X179872285Y-126477571D02*
X180015142Y-126406142D01*
X180086571Y-126263285D01*
X180086571Y-124977571D01*
X179086571Y-126477571D02*
X179229428Y-126406142D01*
X179300857Y-126263285D01*
X179300857Y-124977571D01*
X177943714Y-126406142D02*
X178086571Y-126477571D01*
X178372285Y-126477571D01*
X178515142Y-126406142D01*
X178586571Y-126263285D01*
X178586571Y-125691857D01*
X178515142Y-125549000D01*
X178372285Y-125477571D01*
X178086571Y-125477571D01*
X177943714Y-125549000D01*
X177872285Y-125691857D01*
X177872285Y-125834714D01*
X178586571Y-125977571D01*
X177229428Y-126477571D02*
X177229428Y-125477571D01*
X177229428Y-125763285D02*
X177158000Y-125620428D01*
X177086571Y-125549000D01*
X176943714Y-125477571D01*
X176800857Y-125477571D01*
X174300857Y-126477571D02*
X174800857Y-125763285D01*
X175158000Y-126477571D02*
X175158000Y-124977571D01*
X174586571Y-124977571D01*
X174443714Y-125049000D01*
X174372285Y-125120428D01*
X174300857Y-125263285D01*
X174300857Y-125477571D01*
X174372285Y-125620428D01*
X174443714Y-125691857D01*
X174586571Y-125763285D01*
X175158000Y-125763285D01*
X172872285Y-126477571D02*
X173729428Y-126477571D01*
X173300857Y-126477571D02*
X173300857Y-124977571D01*
X173443714Y-125191857D01*
X173586571Y-125334714D01*
X173729428Y-125406142D01*
X243872285Y-93927571D02*
X243872285Y-92427571D01*
X242658000Y-93141857D02*
X242443714Y-93213285D01*
X242372285Y-93284714D01*
X242300857Y-93427571D01*
X242300857Y-93641857D01*
X242372285Y-93784714D01*
X242443714Y-93856142D01*
X242586571Y-93927571D01*
X243158000Y-93927571D01*
X243158000Y-92427571D01*
X242658000Y-92427571D01*
X242515142Y-92499000D01*
X242443714Y-92570428D01*
X242372285Y-92713285D01*
X242372285Y-92856142D01*
X242443714Y-92999000D01*
X242515142Y-93070428D01*
X242658000Y-93141857D01*
X243158000Y-93141857D01*
X241658000Y-93927571D02*
X241658000Y-92427571D01*
X241158000Y-93499000D01*
X240658000Y-92427571D01*
X240658000Y-93927571D01*
X239943714Y-93356142D02*
X238800857Y-93356142D01*
X237372285Y-92427571D02*
X238086571Y-92427571D01*
X238158000Y-93141857D01*
X238086571Y-93070428D01*
X237943714Y-92999000D01*
X237586571Y-92999000D01*
X237443714Y-93070428D01*
X237372285Y-93141857D01*
X237300857Y-93284714D01*
X237300857Y-93641857D01*
X237372285Y-93784714D01*
X237443714Y-93856142D01*
X237586571Y-93927571D01*
X237943714Y-93927571D01*
X238086571Y-93856142D01*
X238158000Y-93784714D01*
X236729428Y-92570428D02*
X236658000Y-92499000D01*
X236515142Y-92427571D01*
X236158000Y-92427571D01*
X236015142Y-92499000D01*
X235943714Y-92570428D01*
X235872285Y-92713285D01*
X235872285Y-92856142D01*
X235943714Y-93070428D01*
X236800857Y-93927571D01*
X235872285Y-93927571D01*
X235158000Y-93927571D02*
X234872285Y-93927571D01*
X234729428Y-93856142D01*
X234658000Y-93784714D01*
X234515142Y-93570428D01*
X234443714Y-93284714D01*
X234443714Y-92713285D01*
X234515142Y-92570428D01*
X234586571Y-92499000D01*
X234729428Y-92427571D01*
X235015142Y-92427571D01*
X235158000Y-92499000D01*
X235229428Y-92570428D01*
X235300857Y-92713285D01*
X235300857Y-93070428D01*
X235229428Y-93213285D01*
X235158000Y-93284714D01*
X235015142Y-93356142D01*
X234729428Y-93356142D01*
X234586571Y-93284714D01*
X234515142Y-93213285D01*
X234443714Y-93070428D01*
X233015142Y-93927571D02*
X233872285Y-93927571D01*
X233443714Y-93927571D02*
X233443714Y-92427571D01*
X233586571Y-92641857D01*
X233729428Y-92784714D01*
X233872285Y-92856142D01*
X231229428Y-93927571D02*
X231229428Y-92427571D01*
X231086571Y-93356142D02*
X230658000Y-93927571D01*
X230658000Y-92927571D02*
X231229428Y-93499000D01*
X229443714Y-93856142D02*
X229586571Y-93927571D01*
X229872285Y-93927571D01*
X230015142Y-93856142D01*
X230086571Y-93713285D01*
X230086571Y-93141857D01*
X230015142Y-92999000D01*
X229872285Y-92927571D01*
X229586571Y-92927571D01*
X229443714Y-92999000D01*
X229372285Y-93141857D01*
X229372285Y-93284714D01*
X230086571Y-93427571D01*
X228872285Y-92927571D02*
X228515142Y-93927571D01*
X228158000Y-92927571D02*
X228515142Y-93927571D01*
X228658000Y-94284714D01*
X228729428Y-94356142D01*
X228872285Y-94427571D01*
X227586571Y-93927571D02*
X227586571Y-92427571D01*
X227586571Y-92999000D02*
X227443714Y-92927571D01*
X227158000Y-92927571D01*
X227015142Y-92999000D01*
X226943714Y-93070428D01*
X226872285Y-93213285D01*
X226872285Y-93641857D01*
X226943714Y-93784714D01*
X227015142Y-93856142D01*
X227158000Y-93927571D01*
X227443714Y-93927571D01*
X227586571Y-93856142D01*
X226015142Y-93927571D02*
X226158000Y-93856142D01*
X226229428Y-93784714D01*
X226300857Y-93641857D01*
X226300857Y-93213285D01*
X226229428Y-93070428D01*
X226158000Y-92999000D01*
X226015142Y-92927571D01*
X225800857Y-92927571D01*
X225658000Y-92999000D01*
X225586571Y-93070428D01*
X225515142Y-93213285D01*
X225515142Y-93641857D01*
X225586571Y-93784714D01*
X225658000Y-93856142D01*
X225800857Y-93927571D01*
X226015142Y-93927571D01*
X224229428Y-93927571D02*
X224229428Y-93141857D01*
X224300857Y-92999000D01*
X224443714Y-92927571D01*
X224729428Y-92927571D01*
X224872285Y-92999000D01*
X224229428Y-93856142D02*
X224372285Y-93927571D01*
X224729428Y-93927571D01*
X224872285Y-93856142D01*
X224943714Y-93713285D01*
X224943714Y-93570428D01*
X224872285Y-93427571D01*
X224729428Y-93356142D01*
X224372285Y-93356142D01*
X224229428Y-93284714D01*
X223515142Y-93927571D02*
X223515142Y-92927571D01*
X223515142Y-93213285D02*
X223443714Y-93070428D01*
X223372285Y-92999000D01*
X223229428Y-92927571D01*
X223086571Y-92927571D01*
X221943714Y-93927571D02*
X221943714Y-92427571D01*
X221943714Y-93856142D02*
X222086571Y-93927571D01*
X222372285Y-93927571D01*
X222515142Y-93856142D01*
X222586571Y-93784714D01*
X222658000Y-93641857D01*
X222658000Y-93213285D01*
X222586571Y-93070428D01*
X222515142Y-92999000D01*
X222372285Y-92927571D01*
X222086571Y-92927571D01*
X221943714Y-92999000D01*
X242872285Y-94977571D02*
X242872285Y-96191857D01*
X242800857Y-96334714D01*
X242729428Y-96406142D01*
X242586571Y-96477571D01*
X242300857Y-96477571D01*
X242158000Y-96406142D01*
X242086571Y-96334714D01*
X242015142Y-96191857D01*
X242015142Y-94977571D01*
X241372285Y-96406142D02*
X241158000Y-96477571D01*
X240800857Y-96477571D01*
X240658000Y-96406142D01*
X240586571Y-96334714D01*
X240515142Y-96191857D01*
X240515142Y-96049000D01*
X240586571Y-95906142D01*
X240658000Y-95834714D01*
X240800857Y-95763285D01*
X241086571Y-95691857D01*
X241229428Y-95620428D01*
X241300857Y-95549000D01*
X241372285Y-95406142D01*
X241372285Y-95263285D01*
X241300857Y-95120428D01*
X241229428Y-95049000D01*
X241086571Y-94977571D01*
X240729428Y-94977571D01*
X240515142Y-95049000D01*
X239372285Y-95691857D02*
X239158000Y-95763285D01*
X239086571Y-95834714D01*
X239015142Y-95977571D01*
X239015142Y-96191857D01*
X239086571Y-96334714D01*
X239158000Y-96406142D01*
X239300857Y-96477571D01*
X239872285Y-96477571D01*
X239872285Y-94977571D01*
X239372285Y-94977571D01*
X239229428Y-95049000D01*
X239158000Y-95120428D01*
X239086571Y-95263285D01*
X239086571Y-95406142D01*
X239158000Y-95549000D01*
X239229428Y-95620428D01*
X239372285Y-95691857D01*
X239872285Y-95691857D01*
X236586571Y-96406142D02*
X236729428Y-96477571D01*
X237015142Y-96477571D01*
X237158000Y-96406142D01*
X237229428Y-96334714D01*
X237300857Y-96191857D01*
X237300857Y-95763285D01*
X237229428Y-95620428D01*
X237158000Y-95549000D01*
X237015142Y-95477571D01*
X236729428Y-95477571D01*
X236586571Y-95549000D01*
X235729428Y-96477571D02*
X235872285Y-96406142D01*
X235943714Y-96334714D01*
X236015142Y-96191857D01*
X236015142Y-95763285D01*
X235943714Y-95620428D01*
X235872285Y-95549000D01*
X235729428Y-95477571D01*
X235515142Y-95477571D01*
X235372285Y-95549000D01*
X235300857Y-95620428D01*
X235229428Y-95763285D01*
X235229428Y-96191857D01*
X235300857Y-96334714D01*
X235372285Y-96406142D01*
X235515142Y-96477571D01*
X235729428Y-96477571D01*
X234586571Y-95477571D02*
X234586571Y-96477571D01*
X234586571Y-95620428D02*
X234515142Y-95549000D01*
X234372285Y-95477571D01*
X234158000Y-95477571D01*
X234015142Y-95549000D01*
X233943714Y-95691857D01*
X233943714Y-96477571D01*
X233443714Y-95477571D02*
X232872285Y-95477571D01*
X233229428Y-94977571D02*
X233229428Y-96263285D01*
X233158000Y-96406142D01*
X233015142Y-96477571D01*
X232872285Y-96477571D01*
X232372285Y-96477571D02*
X232372285Y-95477571D01*
X232372285Y-95763285D02*
X232300857Y-95620428D01*
X232229428Y-95549000D01*
X232086571Y-95477571D01*
X231943714Y-95477571D01*
X231229428Y-96477571D02*
X231372285Y-96406142D01*
X231443714Y-96334714D01*
X231515142Y-96191857D01*
X231515142Y-95763285D01*
X231443714Y-95620428D01*
X231372285Y-95549000D01*
X231229428Y-95477571D01*
X231015142Y-95477571D01*
X230872285Y-95549000D01*
X230800857Y-95620428D01*
X230729428Y-95763285D01*
X230729428Y-96191857D01*
X230800857Y-96334714D01*
X230872285Y-96406142D01*
X231015142Y-96477571D01*
X231229428Y-96477571D01*
X229872285Y-96477571D02*
X230015142Y-96406142D01*
X230086571Y-96263285D01*
X230086571Y-94977571D01*
X229086571Y-96477571D02*
X229229428Y-96406142D01*
X229300857Y-96263285D01*
X229300857Y-94977571D01*
X227943714Y-96406142D02*
X228086571Y-96477571D01*
X228372285Y-96477571D01*
X228515142Y-96406142D01*
X228586571Y-96263285D01*
X228586571Y-95691857D01*
X228515142Y-95549000D01*
X228372285Y-95477571D01*
X228086571Y-95477571D01*
X227943714Y-95549000D01*
X227872285Y-95691857D01*
X227872285Y-95834714D01*
X228586571Y-95977571D01*
X227229428Y-96477571D02*
X227229428Y-95477571D01*
X227229428Y-95763285D02*
X227158000Y-95620428D01*
X227086571Y-95549000D01*
X226943714Y-95477571D01*
X226800857Y-95477571D01*
X224300857Y-96477571D02*
X224800857Y-95763285D01*
X225158000Y-96477571D02*
X225158000Y-94977571D01*
X224586571Y-94977571D01*
X224443714Y-95049000D01*
X224372285Y-95120428D01*
X224300857Y-95263285D01*
X224300857Y-95477571D01*
X224372285Y-95620428D01*
X224443714Y-95691857D01*
X224586571Y-95763285D01*
X225158000Y-95763285D01*
X222872285Y-96477571D02*
X223729428Y-96477571D01*
X223300857Y-96477571D02*
X223300857Y-94977571D01*
X223443714Y-95191857D01*
X223586571Y-95334714D01*
X223729428Y-95406142D01*
X193872285Y-93927571D02*
X193872285Y-92427571D01*
X192658000Y-93141857D02*
X192443714Y-93213285D01*
X192372285Y-93284714D01*
X192300857Y-93427571D01*
X192300857Y-93641857D01*
X192372285Y-93784714D01*
X192443714Y-93856142D01*
X192586571Y-93927571D01*
X193158000Y-93927571D01*
X193158000Y-92427571D01*
X192658000Y-92427571D01*
X192515142Y-92499000D01*
X192443714Y-92570428D01*
X192372285Y-92713285D01*
X192372285Y-92856142D01*
X192443714Y-92999000D01*
X192515142Y-93070428D01*
X192658000Y-93141857D01*
X193158000Y-93141857D01*
X191658000Y-93927571D02*
X191658000Y-92427571D01*
X191158000Y-93499000D01*
X190658000Y-92427571D01*
X190658000Y-93927571D01*
X189943714Y-93356142D02*
X188800857Y-93356142D01*
X187372285Y-92427571D02*
X188086571Y-92427571D01*
X188158000Y-93141857D01*
X188086571Y-93070428D01*
X187943714Y-92999000D01*
X187586571Y-92999000D01*
X187443714Y-93070428D01*
X187372285Y-93141857D01*
X187300857Y-93284714D01*
X187300857Y-93641857D01*
X187372285Y-93784714D01*
X187443714Y-93856142D01*
X187586571Y-93927571D01*
X187943714Y-93927571D01*
X188086571Y-93856142D01*
X188158000Y-93784714D01*
X186729428Y-92570428D02*
X186658000Y-92499000D01*
X186515142Y-92427571D01*
X186158000Y-92427571D01*
X186015142Y-92499000D01*
X185943714Y-92570428D01*
X185872285Y-92713285D01*
X185872285Y-92856142D01*
X185943714Y-93070428D01*
X186800857Y-93927571D01*
X185872285Y-93927571D01*
X185158000Y-93927571D02*
X184872285Y-93927571D01*
X184729428Y-93856142D01*
X184658000Y-93784714D01*
X184515142Y-93570428D01*
X184443714Y-93284714D01*
X184443714Y-92713285D01*
X184515142Y-92570428D01*
X184586571Y-92499000D01*
X184729428Y-92427571D01*
X185015142Y-92427571D01*
X185158000Y-92499000D01*
X185229428Y-92570428D01*
X185300857Y-92713285D01*
X185300857Y-93070428D01*
X185229428Y-93213285D01*
X185158000Y-93284714D01*
X185015142Y-93356142D01*
X184729428Y-93356142D01*
X184586571Y-93284714D01*
X184515142Y-93213285D01*
X184443714Y-93070428D01*
X183015142Y-93927571D02*
X183872285Y-93927571D01*
X183443714Y-93927571D02*
X183443714Y-92427571D01*
X183586571Y-92641857D01*
X183729428Y-92784714D01*
X183872285Y-92856142D01*
X181229428Y-93927571D02*
X181229428Y-92427571D01*
X181086571Y-93356142D02*
X180658000Y-93927571D01*
X180658000Y-92927571D02*
X181229428Y-93499000D01*
X179443714Y-93856142D02*
X179586571Y-93927571D01*
X179872285Y-93927571D01*
X180015142Y-93856142D01*
X180086571Y-93713285D01*
X180086571Y-93141857D01*
X180015142Y-92999000D01*
X179872285Y-92927571D01*
X179586571Y-92927571D01*
X179443714Y-92999000D01*
X179372285Y-93141857D01*
X179372285Y-93284714D01*
X180086571Y-93427571D01*
X178872285Y-92927571D02*
X178515142Y-93927571D01*
X178158000Y-92927571D02*
X178515142Y-93927571D01*
X178658000Y-94284714D01*
X178729428Y-94356142D01*
X178872285Y-94427571D01*
X177586571Y-93927571D02*
X177586571Y-92427571D01*
X177586571Y-92999000D02*
X177443714Y-92927571D01*
X177158000Y-92927571D01*
X177015142Y-92999000D01*
X176943714Y-93070428D01*
X176872285Y-93213285D01*
X176872285Y-93641857D01*
X176943714Y-93784714D01*
X177015142Y-93856142D01*
X177158000Y-93927571D01*
X177443714Y-93927571D01*
X177586571Y-93856142D01*
X176015142Y-93927571D02*
X176158000Y-93856142D01*
X176229428Y-93784714D01*
X176300857Y-93641857D01*
X176300857Y-93213285D01*
X176229428Y-93070428D01*
X176158000Y-92999000D01*
X176015142Y-92927571D01*
X175800857Y-92927571D01*
X175658000Y-92999000D01*
X175586571Y-93070428D01*
X175515142Y-93213285D01*
X175515142Y-93641857D01*
X175586571Y-93784714D01*
X175658000Y-93856142D01*
X175800857Y-93927571D01*
X176015142Y-93927571D01*
X174229428Y-93927571D02*
X174229428Y-93141857D01*
X174300857Y-92999000D01*
X174443714Y-92927571D01*
X174729428Y-92927571D01*
X174872285Y-92999000D01*
X174229428Y-93856142D02*
X174372285Y-93927571D01*
X174729428Y-93927571D01*
X174872285Y-93856142D01*
X174943714Y-93713285D01*
X174943714Y-93570428D01*
X174872285Y-93427571D01*
X174729428Y-93356142D01*
X174372285Y-93356142D01*
X174229428Y-93284714D01*
X173515142Y-93927571D02*
X173515142Y-92927571D01*
X173515142Y-93213285D02*
X173443714Y-93070428D01*
X173372285Y-92999000D01*
X173229428Y-92927571D01*
X173086571Y-92927571D01*
X171943714Y-93927571D02*
X171943714Y-92427571D01*
X171943714Y-93856142D02*
X172086571Y-93927571D01*
X172372285Y-93927571D01*
X172515142Y-93856142D01*
X172586571Y-93784714D01*
X172658000Y-93641857D01*
X172658000Y-93213285D01*
X172586571Y-93070428D01*
X172515142Y-92999000D01*
X172372285Y-92927571D01*
X172086571Y-92927571D01*
X171943714Y-92999000D01*
X192872285Y-94977571D02*
X192872285Y-96191857D01*
X192800857Y-96334714D01*
X192729428Y-96406142D01*
X192586571Y-96477571D01*
X192300857Y-96477571D01*
X192158000Y-96406142D01*
X192086571Y-96334714D01*
X192015142Y-96191857D01*
X192015142Y-94977571D01*
X191372285Y-96406142D02*
X191158000Y-96477571D01*
X190800857Y-96477571D01*
X190658000Y-96406142D01*
X190586571Y-96334714D01*
X190515142Y-96191857D01*
X190515142Y-96049000D01*
X190586571Y-95906142D01*
X190658000Y-95834714D01*
X190800857Y-95763285D01*
X191086571Y-95691857D01*
X191229428Y-95620428D01*
X191300857Y-95549000D01*
X191372285Y-95406142D01*
X191372285Y-95263285D01*
X191300857Y-95120428D01*
X191229428Y-95049000D01*
X191086571Y-94977571D01*
X190729428Y-94977571D01*
X190515142Y-95049000D01*
X189372285Y-95691857D02*
X189158000Y-95763285D01*
X189086571Y-95834714D01*
X189015142Y-95977571D01*
X189015142Y-96191857D01*
X189086571Y-96334714D01*
X189158000Y-96406142D01*
X189300857Y-96477571D01*
X189872285Y-96477571D01*
X189872285Y-94977571D01*
X189372285Y-94977571D01*
X189229428Y-95049000D01*
X189158000Y-95120428D01*
X189086571Y-95263285D01*
X189086571Y-95406142D01*
X189158000Y-95549000D01*
X189229428Y-95620428D01*
X189372285Y-95691857D01*
X189872285Y-95691857D01*
X186586571Y-96406142D02*
X186729428Y-96477571D01*
X187015142Y-96477571D01*
X187158000Y-96406142D01*
X187229428Y-96334714D01*
X187300857Y-96191857D01*
X187300857Y-95763285D01*
X187229428Y-95620428D01*
X187158000Y-95549000D01*
X187015142Y-95477571D01*
X186729428Y-95477571D01*
X186586571Y-95549000D01*
X185729428Y-96477571D02*
X185872285Y-96406142D01*
X185943714Y-96334714D01*
X186015142Y-96191857D01*
X186015142Y-95763285D01*
X185943714Y-95620428D01*
X185872285Y-95549000D01*
X185729428Y-95477571D01*
X185515142Y-95477571D01*
X185372285Y-95549000D01*
X185300857Y-95620428D01*
X185229428Y-95763285D01*
X185229428Y-96191857D01*
X185300857Y-96334714D01*
X185372285Y-96406142D01*
X185515142Y-96477571D01*
X185729428Y-96477571D01*
X184586571Y-95477571D02*
X184586571Y-96477571D01*
X184586571Y-95620428D02*
X184515142Y-95549000D01*
X184372285Y-95477571D01*
X184158000Y-95477571D01*
X184015142Y-95549000D01*
X183943714Y-95691857D01*
X183943714Y-96477571D01*
X183443714Y-95477571D02*
X182872285Y-95477571D01*
X183229428Y-94977571D02*
X183229428Y-96263285D01*
X183158000Y-96406142D01*
X183015142Y-96477571D01*
X182872285Y-96477571D01*
X182372285Y-96477571D02*
X182372285Y-95477571D01*
X182372285Y-95763285D02*
X182300857Y-95620428D01*
X182229428Y-95549000D01*
X182086571Y-95477571D01*
X181943714Y-95477571D01*
X181229428Y-96477571D02*
X181372285Y-96406142D01*
X181443714Y-96334714D01*
X181515142Y-96191857D01*
X181515142Y-95763285D01*
X181443714Y-95620428D01*
X181372285Y-95549000D01*
X181229428Y-95477571D01*
X181015142Y-95477571D01*
X180872285Y-95549000D01*
X180800857Y-95620428D01*
X180729428Y-95763285D01*
X180729428Y-96191857D01*
X180800857Y-96334714D01*
X180872285Y-96406142D01*
X181015142Y-96477571D01*
X181229428Y-96477571D01*
X179872285Y-96477571D02*
X180015142Y-96406142D01*
X180086571Y-96263285D01*
X180086571Y-94977571D01*
X179086571Y-96477571D02*
X179229428Y-96406142D01*
X179300857Y-96263285D01*
X179300857Y-94977571D01*
X177943714Y-96406142D02*
X178086571Y-96477571D01*
X178372285Y-96477571D01*
X178515142Y-96406142D01*
X178586571Y-96263285D01*
X178586571Y-95691857D01*
X178515142Y-95549000D01*
X178372285Y-95477571D01*
X178086571Y-95477571D01*
X177943714Y-95549000D01*
X177872285Y-95691857D01*
X177872285Y-95834714D01*
X178586571Y-95977571D01*
X177229428Y-96477571D02*
X177229428Y-95477571D01*
X177229428Y-95763285D02*
X177158000Y-95620428D01*
X177086571Y-95549000D01*
X176943714Y-95477571D01*
X176800857Y-95477571D01*
X174300857Y-96477571D02*
X174800857Y-95763285D01*
X175158000Y-96477571D02*
X175158000Y-94977571D01*
X174586571Y-94977571D01*
X174443714Y-95049000D01*
X174372285Y-95120428D01*
X174300857Y-95263285D01*
X174300857Y-95477571D01*
X174372285Y-95620428D01*
X174443714Y-95691857D01*
X174586571Y-95763285D01*
X175158000Y-95763285D01*
X172872285Y-96477571D02*
X173729428Y-96477571D01*
X173300857Y-96477571D02*
X173300857Y-94977571D01*
X173443714Y-95191857D01*
X173586571Y-95334714D01*
X173729428Y-95406142D01*
X243872285Y-63927571D02*
X243872285Y-62427571D01*
X242658000Y-63141857D02*
X242443714Y-63213285D01*
X242372285Y-63284714D01*
X242300857Y-63427571D01*
X242300857Y-63641857D01*
X242372285Y-63784714D01*
X242443714Y-63856142D01*
X242586571Y-63927571D01*
X243158000Y-63927571D01*
X243158000Y-62427571D01*
X242658000Y-62427571D01*
X242515142Y-62499000D01*
X242443714Y-62570428D01*
X242372285Y-62713285D01*
X242372285Y-62856142D01*
X242443714Y-62999000D01*
X242515142Y-63070428D01*
X242658000Y-63141857D01*
X243158000Y-63141857D01*
X241658000Y-63927571D02*
X241658000Y-62427571D01*
X241158000Y-63499000D01*
X240658000Y-62427571D01*
X240658000Y-63927571D01*
X239943714Y-63356142D02*
X238800857Y-63356142D01*
X237372285Y-62427571D02*
X238086571Y-62427571D01*
X238158000Y-63141857D01*
X238086571Y-63070428D01*
X237943714Y-62999000D01*
X237586571Y-62999000D01*
X237443714Y-63070428D01*
X237372285Y-63141857D01*
X237300857Y-63284714D01*
X237300857Y-63641857D01*
X237372285Y-63784714D01*
X237443714Y-63856142D01*
X237586571Y-63927571D01*
X237943714Y-63927571D01*
X238086571Y-63856142D01*
X238158000Y-63784714D01*
X236729428Y-62570428D02*
X236658000Y-62499000D01*
X236515142Y-62427571D01*
X236158000Y-62427571D01*
X236015142Y-62499000D01*
X235943714Y-62570428D01*
X235872285Y-62713285D01*
X235872285Y-62856142D01*
X235943714Y-63070428D01*
X236800857Y-63927571D01*
X235872285Y-63927571D01*
X235158000Y-63927571D02*
X234872285Y-63927571D01*
X234729428Y-63856142D01*
X234658000Y-63784714D01*
X234515142Y-63570428D01*
X234443714Y-63284714D01*
X234443714Y-62713285D01*
X234515142Y-62570428D01*
X234586571Y-62499000D01*
X234729428Y-62427571D01*
X235015142Y-62427571D01*
X235158000Y-62499000D01*
X235229428Y-62570428D01*
X235300857Y-62713285D01*
X235300857Y-63070428D01*
X235229428Y-63213285D01*
X235158000Y-63284714D01*
X235015142Y-63356142D01*
X234729428Y-63356142D01*
X234586571Y-63284714D01*
X234515142Y-63213285D01*
X234443714Y-63070428D01*
X233015142Y-63927571D02*
X233872285Y-63927571D01*
X233443714Y-63927571D02*
X233443714Y-62427571D01*
X233586571Y-62641857D01*
X233729428Y-62784714D01*
X233872285Y-62856142D01*
X231229428Y-63927571D02*
X231229428Y-62427571D01*
X231086571Y-63356142D02*
X230658000Y-63927571D01*
X230658000Y-62927571D02*
X231229428Y-63499000D01*
X229443714Y-63856142D02*
X229586571Y-63927571D01*
X229872285Y-63927571D01*
X230015142Y-63856142D01*
X230086571Y-63713285D01*
X230086571Y-63141857D01*
X230015142Y-62999000D01*
X229872285Y-62927571D01*
X229586571Y-62927571D01*
X229443714Y-62999000D01*
X229372285Y-63141857D01*
X229372285Y-63284714D01*
X230086571Y-63427571D01*
X228872285Y-62927571D02*
X228515142Y-63927571D01*
X228158000Y-62927571D02*
X228515142Y-63927571D01*
X228658000Y-64284714D01*
X228729428Y-64356142D01*
X228872285Y-64427571D01*
X227586571Y-63927571D02*
X227586571Y-62427571D01*
X227586571Y-62999000D02*
X227443714Y-62927571D01*
X227158000Y-62927571D01*
X227015142Y-62999000D01*
X226943714Y-63070428D01*
X226872285Y-63213285D01*
X226872285Y-63641857D01*
X226943714Y-63784714D01*
X227015142Y-63856142D01*
X227158000Y-63927571D01*
X227443714Y-63927571D01*
X227586571Y-63856142D01*
X226015142Y-63927571D02*
X226158000Y-63856142D01*
X226229428Y-63784714D01*
X226300857Y-63641857D01*
X226300857Y-63213285D01*
X226229428Y-63070428D01*
X226158000Y-62999000D01*
X226015142Y-62927571D01*
X225800857Y-62927571D01*
X225658000Y-62999000D01*
X225586571Y-63070428D01*
X225515142Y-63213285D01*
X225515142Y-63641857D01*
X225586571Y-63784714D01*
X225658000Y-63856142D01*
X225800857Y-63927571D01*
X226015142Y-63927571D01*
X224229428Y-63927571D02*
X224229428Y-63141857D01*
X224300857Y-62999000D01*
X224443714Y-62927571D01*
X224729428Y-62927571D01*
X224872285Y-62999000D01*
X224229428Y-63856142D02*
X224372285Y-63927571D01*
X224729428Y-63927571D01*
X224872285Y-63856142D01*
X224943714Y-63713285D01*
X224943714Y-63570428D01*
X224872285Y-63427571D01*
X224729428Y-63356142D01*
X224372285Y-63356142D01*
X224229428Y-63284714D01*
X223515142Y-63927571D02*
X223515142Y-62927571D01*
X223515142Y-63213285D02*
X223443714Y-63070428D01*
X223372285Y-62999000D01*
X223229428Y-62927571D01*
X223086571Y-62927571D01*
X221943714Y-63927571D02*
X221943714Y-62427571D01*
X221943714Y-63856142D02*
X222086571Y-63927571D01*
X222372285Y-63927571D01*
X222515142Y-63856142D01*
X222586571Y-63784714D01*
X222658000Y-63641857D01*
X222658000Y-63213285D01*
X222586571Y-63070428D01*
X222515142Y-62999000D01*
X222372285Y-62927571D01*
X222086571Y-62927571D01*
X221943714Y-62999000D01*
X242872285Y-64977571D02*
X242872285Y-66191857D01*
X242800857Y-66334714D01*
X242729428Y-66406142D01*
X242586571Y-66477571D01*
X242300857Y-66477571D01*
X242158000Y-66406142D01*
X242086571Y-66334714D01*
X242015142Y-66191857D01*
X242015142Y-64977571D01*
X241372285Y-66406142D02*
X241158000Y-66477571D01*
X240800857Y-66477571D01*
X240658000Y-66406142D01*
X240586571Y-66334714D01*
X240515142Y-66191857D01*
X240515142Y-66049000D01*
X240586571Y-65906142D01*
X240658000Y-65834714D01*
X240800857Y-65763285D01*
X241086571Y-65691857D01*
X241229428Y-65620428D01*
X241300857Y-65549000D01*
X241372285Y-65406142D01*
X241372285Y-65263285D01*
X241300857Y-65120428D01*
X241229428Y-65049000D01*
X241086571Y-64977571D01*
X240729428Y-64977571D01*
X240515142Y-65049000D01*
X239372285Y-65691857D02*
X239158000Y-65763285D01*
X239086571Y-65834714D01*
X239015142Y-65977571D01*
X239015142Y-66191857D01*
X239086571Y-66334714D01*
X239158000Y-66406142D01*
X239300857Y-66477571D01*
X239872285Y-66477571D01*
X239872285Y-64977571D01*
X239372285Y-64977571D01*
X239229428Y-65049000D01*
X239158000Y-65120428D01*
X239086571Y-65263285D01*
X239086571Y-65406142D01*
X239158000Y-65549000D01*
X239229428Y-65620428D01*
X239372285Y-65691857D01*
X239872285Y-65691857D01*
X236586571Y-66406142D02*
X236729428Y-66477571D01*
X237015142Y-66477571D01*
X237158000Y-66406142D01*
X237229428Y-66334714D01*
X237300857Y-66191857D01*
X237300857Y-65763285D01*
X237229428Y-65620428D01*
X237158000Y-65549000D01*
X237015142Y-65477571D01*
X236729428Y-65477571D01*
X236586571Y-65549000D01*
X235729428Y-66477571D02*
X235872285Y-66406142D01*
X235943714Y-66334714D01*
X236015142Y-66191857D01*
X236015142Y-65763285D01*
X235943714Y-65620428D01*
X235872285Y-65549000D01*
X235729428Y-65477571D01*
X235515142Y-65477571D01*
X235372285Y-65549000D01*
X235300857Y-65620428D01*
X235229428Y-65763285D01*
X235229428Y-66191857D01*
X235300857Y-66334714D01*
X235372285Y-66406142D01*
X235515142Y-66477571D01*
X235729428Y-66477571D01*
X234586571Y-65477571D02*
X234586571Y-66477571D01*
X234586571Y-65620428D02*
X234515142Y-65549000D01*
X234372285Y-65477571D01*
X234158000Y-65477571D01*
X234015142Y-65549000D01*
X233943714Y-65691857D01*
X233943714Y-66477571D01*
X233443714Y-65477571D02*
X232872285Y-65477571D01*
X233229428Y-64977571D02*
X233229428Y-66263285D01*
X233158000Y-66406142D01*
X233015142Y-66477571D01*
X232872285Y-66477571D01*
X232372285Y-66477571D02*
X232372285Y-65477571D01*
X232372285Y-65763285D02*
X232300857Y-65620428D01*
X232229428Y-65549000D01*
X232086571Y-65477571D01*
X231943714Y-65477571D01*
X231229428Y-66477571D02*
X231372285Y-66406142D01*
X231443714Y-66334714D01*
X231515142Y-66191857D01*
X231515142Y-65763285D01*
X231443714Y-65620428D01*
X231372285Y-65549000D01*
X231229428Y-65477571D01*
X231015142Y-65477571D01*
X230872285Y-65549000D01*
X230800857Y-65620428D01*
X230729428Y-65763285D01*
X230729428Y-66191857D01*
X230800857Y-66334714D01*
X230872285Y-66406142D01*
X231015142Y-66477571D01*
X231229428Y-66477571D01*
X229872285Y-66477571D02*
X230015142Y-66406142D01*
X230086571Y-66263285D01*
X230086571Y-64977571D01*
X229086571Y-66477571D02*
X229229428Y-66406142D01*
X229300857Y-66263285D01*
X229300857Y-64977571D01*
X227943714Y-66406142D02*
X228086571Y-66477571D01*
X228372285Y-66477571D01*
X228515142Y-66406142D01*
X228586571Y-66263285D01*
X228586571Y-65691857D01*
X228515142Y-65549000D01*
X228372285Y-65477571D01*
X228086571Y-65477571D01*
X227943714Y-65549000D01*
X227872285Y-65691857D01*
X227872285Y-65834714D01*
X228586571Y-65977571D01*
X227229428Y-66477571D02*
X227229428Y-65477571D01*
X227229428Y-65763285D02*
X227158000Y-65620428D01*
X227086571Y-65549000D01*
X226943714Y-65477571D01*
X226800857Y-65477571D01*
X224300857Y-66477571D02*
X224800857Y-65763285D01*
X225158000Y-66477571D02*
X225158000Y-64977571D01*
X224586571Y-64977571D01*
X224443714Y-65049000D01*
X224372285Y-65120428D01*
X224300857Y-65263285D01*
X224300857Y-65477571D01*
X224372285Y-65620428D01*
X224443714Y-65691857D01*
X224586571Y-65763285D01*
X225158000Y-65763285D01*
X222872285Y-66477571D02*
X223729428Y-66477571D01*
X223300857Y-66477571D02*
X223300857Y-64977571D01*
X223443714Y-65191857D01*
X223586571Y-65334714D01*
X223729428Y-65406142D01*
D10*
X207496000Y-126718214D02*
X207543619Y-126813452D01*
X207543619Y-126956309D01*
X207496000Y-127099166D01*
X207400761Y-127194404D01*
X207305523Y-127242023D01*
X207115047Y-127289642D01*
X206972190Y-127289642D01*
X206781714Y-127242023D01*
X206686476Y-127194404D01*
X206591238Y-127099166D01*
X206543619Y-126956309D01*
X206543619Y-126861071D01*
X206591238Y-126718214D01*
X206638857Y-126670595D01*
X206972190Y-126670595D01*
X206972190Y-126861071D01*
X206543619Y-126242023D02*
X207543619Y-126242023D01*
X206543619Y-125670595D01*
X207543619Y-125670595D01*
X206543619Y-125194404D02*
X207543619Y-125194404D01*
X207543619Y-124956309D01*
X207496000Y-124813452D01*
X207400761Y-124718214D01*
X207305523Y-124670595D01*
X207115047Y-124622976D01*
X206972190Y-124622976D01*
X206781714Y-124670595D01*
X206686476Y-124718214D01*
X206591238Y-124813452D01*
X206543619Y-124956309D01*
X206543619Y-125194404D01*
X157496000Y-126718214D02*
X157543619Y-126813452D01*
X157543619Y-126956309D01*
X157496000Y-127099166D01*
X157400761Y-127194404D01*
X157305523Y-127242023D01*
X157115047Y-127289642D01*
X156972190Y-127289642D01*
X156781714Y-127242023D01*
X156686476Y-127194404D01*
X156591238Y-127099166D01*
X156543619Y-126956309D01*
X156543619Y-126861071D01*
X156591238Y-126718214D01*
X156638857Y-126670595D01*
X156972190Y-126670595D01*
X156972190Y-126861071D01*
X156543619Y-126242023D02*
X157543619Y-126242023D01*
X156543619Y-125670595D01*
X157543619Y-125670595D01*
X156543619Y-125194404D02*
X157543619Y-125194404D01*
X157543619Y-124956309D01*
X157496000Y-124813452D01*
X157400761Y-124718214D01*
X157305523Y-124670595D01*
X157115047Y-124622976D01*
X156972190Y-124622976D01*
X156781714Y-124670595D01*
X156686476Y-124718214D01*
X156591238Y-124813452D01*
X156543619Y-124956309D01*
X156543619Y-125194404D01*
X207496000Y-96718214D02*
X207543619Y-96813452D01*
X207543619Y-96956309D01*
X207496000Y-97099166D01*
X207400761Y-97194404D01*
X207305523Y-97242023D01*
X207115047Y-97289642D01*
X206972190Y-97289642D01*
X206781714Y-97242023D01*
X206686476Y-97194404D01*
X206591238Y-97099166D01*
X206543619Y-96956309D01*
X206543619Y-96861071D01*
X206591238Y-96718214D01*
X206638857Y-96670595D01*
X206972190Y-96670595D01*
X206972190Y-96861071D01*
X206543619Y-96242023D02*
X207543619Y-96242023D01*
X206543619Y-95670595D01*
X207543619Y-95670595D01*
X206543619Y-95194404D02*
X207543619Y-95194404D01*
X207543619Y-94956309D01*
X207496000Y-94813452D01*
X207400761Y-94718214D01*
X207305523Y-94670595D01*
X207115047Y-94622976D01*
X206972190Y-94622976D01*
X206781714Y-94670595D01*
X206686476Y-94718214D01*
X206591238Y-94813452D01*
X206543619Y-94956309D01*
X206543619Y-95194404D01*
X157496000Y-96718214D02*
X157543619Y-96813452D01*
X157543619Y-96956309D01*
X157496000Y-97099166D01*
X157400761Y-97194404D01*
X157305523Y-97242023D01*
X157115047Y-97289642D01*
X156972190Y-97289642D01*
X156781714Y-97242023D01*
X156686476Y-97194404D01*
X156591238Y-97099166D01*
X156543619Y-96956309D01*
X156543619Y-96861071D01*
X156591238Y-96718214D01*
X156638857Y-96670595D01*
X156972190Y-96670595D01*
X156972190Y-96861071D01*
X156543619Y-96242023D02*
X157543619Y-96242023D01*
X156543619Y-95670595D01*
X157543619Y-95670595D01*
X156543619Y-95194404D02*
X157543619Y-95194404D01*
X157543619Y-94956309D01*
X157496000Y-94813452D01*
X157400761Y-94718214D01*
X157305523Y-94670595D01*
X157115047Y-94622976D01*
X156972190Y-94622976D01*
X156781714Y-94670595D01*
X156686476Y-94718214D01*
X156591238Y-94813452D01*
X156543619Y-94956309D01*
X156543619Y-95194404D01*
X207496000Y-66718214D02*
X207543619Y-66813452D01*
X207543619Y-66956309D01*
X207496000Y-67099166D01*
X207400761Y-67194404D01*
X207305523Y-67242023D01*
X207115047Y-67289642D01*
X206972190Y-67289642D01*
X206781714Y-67242023D01*
X206686476Y-67194404D01*
X206591238Y-67099166D01*
X206543619Y-66956309D01*
X206543619Y-66861071D01*
X206591238Y-66718214D01*
X206638857Y-66670595D01*
X206972190Y-66670595D01*
X206972190Y-66861071D01*
X206543619Y-66242023D02*
X207543619Y-66242023D01*
X206543619Y-65670595D01*
X207543619Y-65670595D01*
X206543619Y-65194404D02*
X207543619Y-65194404D01*
X207543619Y-64956309D01*
X207496000Y-64813452D01*
X207400761Y-64718214D01*
X207305523Y-64670595D01*
X207115047Y-64622976D01*
X206972190Y-64622976D01*
X206781714Y-64670595D01*
X206686476Y-64718214D01*
X206591238Y-64813452D01*
X206543619Y-64956309D01*
X206543619Y-65194404D01*
X211627619Y-126432500D02*
X212627619Y-126432500D01*
X212627619Y-126194404D01*
X212580000Y-126051547D01*
X212484761Y-125956309D01*
X212389523Y-125908690D01*
X212199047Y-125861071D01*
X212056190Y-125861071D01*
X211865714Y-125908690D01*
X211770476Y-125956309D01*
X211675238Y-126051547D01*
X211627619Y-126194404D01*
X211627619Y-126432500D01*
X212008571Y-125432500D02*
X212008571Y-124670595D01*
X161627619Y-126432500D02*
X162627619Y-126432500D01*
X162627619Y-126194404D01*
X162580000Y-126051547D01*
X162484761Y-125956309D01*
X162389523Y-125908690D01*
X162199047Y-125861071D01*
X162056190Y-125861071D01*
X161865714Y-125908690D01*
X161770476Y-125956309D01*
X161675238Y-126051547D01*
X161627619Y-126194404D01*
X161627619Y-126432500D01*
X162008571Y-125432500D02*
X162008571Y-124670595D01*
X211627619Y-96432500D02*
X212627619Y-96432500D01*
X212627619Y-96194404D01*
X212580000Y-96051547D01*
X212484761Y-95956309D01*
X212389523Y-95908690D01*
X212199047Y-95861071D01*
X212056190Y-95861071D01*
X211865714Y-95908690D01*
X211770476Y-95956309D01*
X211675238Y-96051547D01*
X211627619Y-96194404D01*
X211627619Y-96432500D01*
X212008571Y-95432500D02*
X212008571Y-94670595D01*
X161627619Y-96432500D02*
X162627619Y-96432500D01*
X162627619Y-96194404D01*
X162580000Y-96051547D01*
X162484761Y-95956309D01*
X162389523Y-95908690D01*
X162199047Y-95861071D01*
X162056190Y-95861071D01*
X161865714Y-95908690D01*
X161770476Y-95956309D01*
X161675238Y-96051547D01*
X161627619Y-96194404D01*
X161627619Y-96432500D01*
X162008571Y-95432500D02*
X162008571Y-94670595D01*
X211627619Y-66432500D02*
X212627619Y-66432500D01*
X212627619Y-66194404D01*
X212580000Y-66051547D01*
X212484761Y-65956309D01*
X212389523Y-65908690D01*
X212199047Y-65861071D01*
X212056190Y-65861071D01*
X211865714Y-65908690D01*
X211770476Y-65956309D01*
X211675238Y-66051547D01*
X211627619Y-66194404D01*
X211627619Y-66432500D01*
X212008571Y-65432500D02*
X212008571Y-64670595D01*
X215167619Y-128194404D02*
X214167619Y-127861071D01*
X215167619Y-127527738D01*
X214691428Y-126861071D02*
X214643809Y-126718214D01*
X214596190Y-126670595D01*
X214500952Y-126622976D01*
X214358095Y-126622976D01*
X214262857Y-126670595D01*
X214215238Y-126718214D01*
X214167619Y-126813452D01*
X214167619Y-127194404D01*
X215167619Y-127194404D01*
X215167619Y-126861071D01*
X215120000Y-126765833D01*
X215072380Y-126718214D01*
X214977142Y-126670595D01*
X214881904Y-126670595D01*
X214786666Y-126718214D01*
X214739047Y-126765833D01*
X214691428Y-126861071D01*
X214691428Y-127194404D01*
X215167619Y-126194404D02*
X214358095Y-126194404D01*
X214262857Y-126146785D01*
X214215238Y-126099166D01*
X214167619Y-126003928D01*
X214167619Y-125813452D01*
X214215238Y-125718214D01*
X214262857Y-125670595D01*
X214358095Y-125622976D01*
X215167619Y-125622976D01*
X214215238Y-125194404D02*
X214167619Y-125051547D01*
X214167619Y-124813452D01*
X214215238Y-124718214D01*
X214262857Y-124670595D01*
X214358095Y-124622976D01*
X214453333Y-124622976D01*
X214548571Y-124670595D01*
X214596190Y-124718214D01*
X214643809Y-124813452D01*
X214691428Y-125003928D01*
X214739047Y-125099166D01*
X214786666Y-125146785D01*
X214881904Y-125194404D01*
X214977142Y-125194404D01*
X215072380Y-125146785D01*
X215120000Y-125099166D01*
X215167619Y-125003928D01*
X215167619Y-124765833D01*
X215120000Y-124622976D01*
X165167619Y-128194404D02*
X164167619Y-127861071D01*
X165167619Y-127527738D01*
X164691428Y-126861071D02*
X164643809Y-126718214D01*
X164596190Y-126670595D01*
X164500952Y-126622976D01*
X164358095Y-126622976D01*
X164262857Y-126670595D01*
X164215238Y-126718214D01*
X164167619Y-126813452D01*
X164167619Y-127194404D01*
X165167619Y-127194404D01*
X165167619Y-126861071D01*
X165120000Y-126765833D01*
X165072380Y-126718214D01*
X164977142Y-126670595D01*
X164881904Y-126670595D01*
X164786666Y-126718214D01*
X164739047Y-126765833D01*
X164691428Y-126861071D01*
X164691428Y-127194404D01*
X165167619Y-126194404D02*
X164358095Y-126194404D01*
X164262857Y-126146785D01*
X164215238Y-126099166D01*
X164167619Y-126003928D01*
X164167619Y-125813452D01*
X164215238Y-125718214D01*
X164262857Y-125670595D01*
X164358095Y-125622976D01*
X165167619Y-125622976D01*
X164215238Y-125194404D02*
X164167619Y-125051547D01*
X164167619Y-124813452D01*
X164215238Y-124718214D01*
X164262857Y-124670595D01*
X164358095Y-124622976D01*
X164453333Y-124622976D01*
X164548571Y-124670595D01*
X164596190Y-124718214D01*
X164643809Y-124813452D01*
X164691428Y-125003928D01*
X164739047Y-125099166D01*
X164786666Y-125146785D01*
X164881904Y-125194404D01*
X164977142Y-125194404D01*
X165072380Y-125146785D01*
X165120000Y-125099166D01*
X165167619Y-125003928D01*
X165167619Y-124765833D01*
X165120000Y-124622976D01*
X215167619Y-98194404D02*
X214167619Y-97861071D01*
X215167619Y-97527738D01*
X214691428Y-96861071D02*
X214643809Y-96718214D01*
X214596190Y-96670595D01*
X214500952Y-96622976D01*
X214358095Y-96622976D01*
X214262857Y-96670595D01*
X214215238Y-96718214D01*
X214167619Y-96813452D01*
X214167619Y-97194404D01*
X215167619Y-97194404D01*
X215167619Y-96861071D01*
X215120000Y-96765833D01*
X215072380Y-96718214D01*
X214977142Y-96670595D01*
X214881904Y-96670595D01*
X214786666Y-96718214D01*
X214739047Y-96765833D01*
X214691428Y-96861071D01*
X214691428Y-97194404D01*
X215167619Y-96194404D02*
X214358095Y-96194404D01*
X214262857Y-96146785D01*
X214215238Y-96099166D01*
X214167619Y-96003928D01*
X214167619Y-95813452D01*
X214215238Y-95718214D01*
X214262857Y-95670595D01*
X214358095Y-95622976D01*
X215167619Y-95622976D01*
X214215238Y-95194404D02*
X214167619Y-95051547D01*
X214167619Y-94813452D01*
X214215238Y-94718214D01*
X214262857Y-94670595D01*
X214358095Y-94622976D01*
X214453333Y-94622976D01*
X214548571Y-94670595D01*
X214596190Y-94718214D01*
X214643809Y-94813452D01*
X214691428Y-95003928D01*
X214739047Y-95099166D01*
X214786666Y-95146785D01*
X214881904Y-95194404D01*
X214977142Y-95194404D01*
X215072380Y-95146785D01*
X215120000Y-95099166D01*
X215167619Y-95003928D01*
X215167619Y-94765833D01*
X215120000Y-94622976D01*
X165167619Y-98194404D02*
X164167619Y-97861071D01*
X165167619Y-97527738D01*
X164691428Y-96861071D02*
X164643809Y-96718214D01*
X164596190Y-96670595D01*
X164500952Y-96622976D01*
X164358095Y-96622976D01*
X164262857Y-96670595D01*
X164215238Y-96718214D01*
X164167619Y-96813452D01*
X164167619Y-97194404D01*
X165167619Y-97194404D01*
X165167619Y-96861071D01*
X165120000Y-96765833D01*
X165072380Y-96718214D01*
X164977142Y-96670595D01*
X164881904Y-96670595D01*
X164786666Y-96718214D01*
X164739047Y-96765833D01*
X164691428Y-96861071D01*
X164691428Y-97194404D01*
X165167619Y-96194404D02*
X164358095Y-96194404D01*
X164262857Y-96146785D01*
X164215238Y-96099166D01*
X164167619Y-96003928D01*
X164167619Y-95813452D01*
X164215238Y-95718214D01*
X164262857Y-95670595D01*
X164358095Y-95622976D01*
X165167619Y-95622976D01*
X164215238Y-95194404D02*
X164167619Y-95051547D01*
X164167619Y-94813452D01*
X164215238Y-94718214D01*
X164262857Y-94670595D01*
X164358095Y-94622976D01*
X164453333Y-94622976D01*
X164548571Y-94670595D01*
X164596190Y-94718214D01*
X164643809Y-94813452D01*
X164691428Y-95003928D01*
X164739047Y-95099166D01*
X164786666Y-95146785D01*
X164881904Y-95194404D01*
X164977142Y-95194404D01*
X165072380Y-95146785D01*
X165120000Y-95099166D01*
X165167619Y-95003928D01*
X165167619Y-94765833D01*
X165120000Y-94622976D01*
X215167619Y-68194404D02*
X214167619Y-67861071D01*
X215167619Y-67527738D01*
X214691428Y-66861071D02*
X214643809Y-66718214D01*
X214596190Y-66670595D01*
X214500952Y-66622976D01*
X214358095Y-66622976D01*
X214262857Y-66670595D01*
X214215238Y-66718214D01*
X214167619Y-66813452D01*
X214167619Y-67194404D01*
X215167619Y-67194404D01*
X215167619Y-66861071D01*
X215120000Y-66765833D01*
X215072380Y-66718214D01*
X214977142Y-66670595D01*
X214881904Y-66670595D01*
X214786666Y-66718214D01*
X214739047Y-66765833D01*
X214691428Y-66861071D01*
X214691428Y-67194404D01*
X215167619Y-66194404D02*
X214358095Y-66194404D01*
X214262857Y-66146785D01*
X214215238Y-66099166D01*
X214167619Y-66003928D01*
X214167619Y-65813452D01*
X214215238Y-65718214D01*
X214262857Y-65670595D01*
X214358095Y-65622976D01*
X215167619Y-65622976D01*
X214215238Y-65194404D02*
X214167619Y-65051547D01*
X214167619Y-64813452D01*
X214215238Y-64718214D01*
X214262857Y-64670595D01*
X214358095Y-64622976D01*
X214453333Y-64622976D01*
X214548571Y-64670595D01*
X214596190Y-64718214D01*
X214643809Y-64813452D01*
X214691428Y-65003928D01*
X214739047Y-65099166D01*
X214786666Y-65146785D01*
X214881904Y-65194404D01*
X214977142Y-65194404D01*
X215072380Y-65146785D01*
X215120000Y-65099166D01*
X215167619Y-65003928D01*
X215167619Y-64765833D01*
X215120000Y-64622976D01*
X238897619Y-115567404D02*
X239897619Y-115567404D01*
X239183333Y-115234071D01*
X239897619Y-114900738D01*
X238897619Y-114900738D01*
X239897619Y-114234071D02*
X239897619Y-114043595D01*
X239850000Y-113948357D01*
X239754761Y-113853119D01*
X239564285Y-113805500D01*
X239230952Y-113805500D01*
X239040476Y-113853119D01*
X238945238Y-113948357D01*
X238897619Y-114043595D01*
X238897619Y-114234071D01*
X238945238Y-114329309D01*
X239040476Y-114424547D01*
X239230952Y-114472166D01*
X239564285Y-114472166D01*
X239754761Y-114424547D01*
X239850000Y-114329309D01*
X239897619Y-114234071D01*
X238945238Y-113424547D02*
X238897619Y-113281690D01*
X238897619Y-113043595D01*
X238945238Y-112948357D01*
X238992857Y-112900738D01*
X239088095Y-112853119D01*
X239183333Y-112853119D01*
X239278571Y-112900738D01*
X239326190Y-112948357D01*
X239373809Y-113043595D01*
X239421428Y-113234071D01*
X239469047Y-113329309D01*
X239516666Y-113376928D01*
X239611904Y-113424547D01*
X239707142Y-113424547D01*
X239802380Y-113376928D01*
X239850000Y-113329309D01*
X239897619Y-113234071D01*
X239897619Y-112995976D01*
X239850000Y-112853119D01*
X238897619Y-112424547D02*
X239897619Y-112424547D01*
X188897619Y-115567404D02*
X189897619Y-115567404D01*
X189183333Y-115234071D01*
X189897619Y-114900738D01*
X188897619Y-114900738D01*
X189897619Y-114234071D02*
X189897619Y-114043595D01*
X189850000Y-113948357D01*
X189754761Y-113853119D01*
X189564285Y-113805500D01*
X189230952Y-113805500D01*
X189040476Y-113853119D01*
X188945238Y-113948357D01*
X188897619Y-114043595D01*
X188897619Y-114234071D01*
X188945238Y-114329309D01*
X189040476Y-114424547D01*
X189230952Y-114472166D01*
X189564285Y-114472166D01*
X189754761Y-114424547D01*
X189850000Y-114329309D01*
X189897619Y-114234071D01*
X188945238Y-113424547D02*
X188897619Y-113281690D01*
X188897619Y-113043595D01*
X188945238Y-112948357D01*
X188992857Y-112900738D01*
X189088095Y-112853119D01*
X189183333Y-112853119D01*
X189278571Y-112900738D01*
X189326190Y-112948357D01*
X189373809Y-113043595D01*
X189421428Y-113234071D01*
X189469047Y-113329309D01*
X189516666Y-113376928D01*
X189611904Y-113424547D01*
X189707142Y-113424547D01*
X189802380Y-113376928D01*
X189850000Y-113329309D01*
X189897619Y-113234071D01*
X189897619Y-112995976D01*
X189850000Y-112853119D01*
X188897619Y-112424547D02*
X189897619Y-112424547D01*
X238897619Y-85567404D02*
X239897619Y-85567404D01*
X239183333Y-85234071D01*
X239897619Y-84900738D01*
X238897619Y-84900738D01*
X239897619Y-84234071D02*
X239897619Y-84043595D01*
X239850000Y-83948357D01*
X239754761Y-83853119D01*
X239564285Y-83805500D01*
X239230952Y-83805500D01*
X239040476Y-83853119D01*
X238945238Y-83948357D01*
X238897619Y-84043595D01*
X238897619Y-84234071D01*
X238945238Y-84329309D01*
X239040476Y-84424547D01*
X239230952Y-84472166D01*
X239564285Y-84472166D01*
X239754761Y-84424547D01*
X239850000Y-84329309D01*
X239897619Y-84234071D01*
X238945238Y-83424547D02*
X238897619Y-83281690D01*
X238897619Y-83043595D01*
X238945238Y-82948357D01*
X238992857Y-82900738D01*
X239088095Y-82853119D01*
X239183333Y-82853119D01*
X239278571Y-82900738D01*
X239326190Y-82948357D01*
X239373809Y-83043595D01*
X239421428Y-83234071D01*
X239469047Y-83329309D01*
X239516666Y-83376928D01*
X239611904Y-83424547D01*
X239707142Y-83424547D01*
X239802380Y-83376928D01*
X239850000Y-83329309D01*
X239897619Y-83234071D01*
X239897619Y-82995976D01*
X239850000Y-82853119D01*
X238897619Y-82424547D02*
X239897619Y-82424547D01*
X188897619Y-85567404D02*
X189897619Y-85567404D01*
X189183333Y-85234071D01*
X189897619Y-84900738D01*
X188897619Y-84900738D01*
X189897619Y-84234071D02*
X189897619Y-84043595D01*
X189850000Y-83948357D01*
X189754761Y-83853119D01*
X189564285Y-83805500D01*
X189230952Y-83805500D01*
X189040476Y-83853119D01*
X188945238Y-83948357D01*
X188897619Y-84043595D01*
X188897619Y-84234071D01*
X188945238Y-84329309D01*
X189040476Y-84424547D01*
X189230952Y-84472166D01*
X189564285Y-84472166D01*
X189754761Y-84424547D01*
X189850000Y-84329309D01*
X189897619Y-84234071D01*
X188945238Y-83424547D02*
X188897619Y-83281690D01*
X188897619Y-83043595D01*
X188945238Y-82948357D01*
X188992857Y-82900738D01*
X189088095Y-82853119D01*
X189183333Y-82853119D01*
X189278571Y-82900738D01*
X189326190Y-82948357D01*
X189373809Y-83043595D01*
X189421428Y-83234071D01*
X189469047Y-83329309D01*
X189516666Y-83376928D01*
X189611904Y-83424547D01*
X189707142Y-83424547D01*
X189802380Y-83376928D01*
X189850000Y-83329309D01*
X189897619Y-83234071D01*
X189897619Y-82995976D01*
X189850000Y-82853119D01*
X188897619Y-82424547D02*
X189897619Y-82424547D01*
X238897619Y-55567404D02*
X239897619Y-55567404D01*
X239183333Y-55234071D01*
X239897619Y-54900738D01*
X238897619Y-54900738D01*
X239897619Y-54234071D02*
X239897619Y-54043595D01*
X239850000Y-53948357D01*
X239754761Y-53853119D01*
X239564285Y-53805500D01*
X239230952Y-53805500D01*
X239040476Y-53853119D01*
X238945238Y-53948357D01*
X238897619Y-54043595D01*
X238897619Y-54234071D01*
X238945238Y-54329309D01*
X239040476Y-54424547D01*
X239230952Y-54472166D01*
X239564285Y-54472166D01*
X239754761Y-54424547D01*
X239850000Y-54329309D01*
X239897619Y-54234071D01*
X238945238Y-53424547D02*
X238897619Y-53281690D01*
X238897619Y-53043595D01*
X238945238Y-52948357D01*
X238992857Y-52900738D01*
X239088095Y-52853119D01*
X239183333Y-52853119D01*
X239278571Y-52900738D01*
X239326190Y-52948357D01*
X239373809Y-53043595D01*
X239421428Y-53234071D01*
X239469047Y-53329309D01*
X239516666Y-53376928D01*
X239611904Y-53424547D01*
X239707142Y-53424547D01*
X239802380Y-53376928D01*
X239850000Y-53329309D01*
X239897619Y-53234071D01*
X239897619Y-52995976D01*
X239850000Y-52853119D01*
X238897619Y-52424547D02*
X239897619Y-52424547D01*
X161627619Y-66432500D02*
X162627619Y-66432500D01*
X162627619Y-66194404D01*
X162580000Y-66051547D01*
X162484761Y-65956309D01*
X162389523Y-65908690D01*
X162199047Y-65861071D01*
X162056190Y-65861071D01*
X161865714Y-65908690D01*
X161770476Y-65956309D01*
X161675238Y-66051547D01*
X161627619Y-66194404D01*
X161627619Y-66432500D01*
X162008571Y-65432500D02*
X162008571Y-64670595D01*
X157496000Y-66718214D02*
X157543619Y-66813452D01*
X157543619Y-66956309D01*
X157496000Y-67099166D01*
X157400761Y-67194404D01*
X157305523Y-67242023D01*
X157115047Y-67289642D01*
X156972190Y-67289642D01*
X156781714Y-67242023D01*
X156686476Y-67194404D01*
X156591238Y-67099166D01*
X156543619Y-66956309D01*
X156543619Y-66861071D01*
X156591238Y-66718214D01*
X156638857Y-66670595D01*
X156972190Y-66670595D01*
X156972190Y-66861071D01*
X156543619Y-66242023D02*
X157543619Y-66242023D01*
X156543619Y-65670595D01*
X157543619Y-65670595D01*
X156543619Y-65194404D02*
X157543619Y-65194404D01*
X157543619Y-64956309D01*
X157496000Y-64813452D01*
X157400761Y-64718214D01*
X157305523Y-64670595D01*
X157115047Y-64622976D01*
X156972190Y-64622976D01*
X156781714Y-64670595D01*
X156686476Y-64718214D01*
X156591238Y-64813452D01*
X156543619Y-64956309D01*
X156543619Y-65194404D01*
X159087619Y-66432500D02*
X160087619Y-66432500D01*
X160087619Y-66194404D01*
X160040000Y-66051547D01*
X159944761Y-65956309D01*
X159849523Y-65908690D01*
X159659047Y-65861071D01*
X159516190Y-65861071D01*
X159325714Y-65908690D01*
X159230476Y-65956309D01*
X159135238Y-66051547D01*
X159087619Y-66194404D01*
X159087619Y-66432500D01*
X159468571Y-65432500D02*
X159468571Y-64670595D01*
X159087619Y-65051547D02*
X159849523Y-65051547D01*
X165167619Y-68194404D02*
X164167619Y-67861071D01*
X165167619Y-67527738D01*
X164691428Y-66861071D02*
X164643809Y-66718214D01*
X164596190Y-66670595D01*
X164500952Y-66622976D01*
X164358095Y-66622976D01*
X164262857Y-66670595D01*
X164215238Y-66718214D01*
X164167619Y-66813452D01*
X164167619Y-67194404D01*
X165167619Y-67194404D01*
X165167619Y-66861071D01*
X165120000Y-66765833D01*
X165072380Y-66718214D01*
X164977142Y-66670595D01*
X164881904Y-66670595D01*
X164786666Y-66718214D01*
X164739047Y-66765833D01*
X164691428Y-66861071D01*
X164691428Y-67194404D01*
X165167619Y-66194404D02*
X164358095Y-66194404D01*
X164262857Y-66146785D01*
X164215238Y-66099166D01*
X164167619Y-66003928D01*
X164167619Y-65813452D01*
X164215238Y-65718214D01*
X164262857Y-65670595D01*
X164358095Y-65622976D01*
X165167619Y-65622976D01*
X164215238Y-65194404D02*
X164167619Y-65051547D01*
X164167619Y-64813452D01*
X164215238Y-64718214D01*
X164262857Y-64670595D01*
X164358095Y-64622976D01*
X164453333Y-64622976D01*
X164548571Y-64670595D01*
X164596190Y-64718214D01*
X164643809Y-64813452D01*
X164691428Y-65003928D01*
X164739047Y-65099166D01*
X164786666Y-65146785D01*
X164881904Y-65194404D01*
X164977142Y-65194404D01*
X165072380Y-65146785D01*
X165120000Y-65099166D01*
X165167619Y-65003928D01*
X165167619Y-64765833D01*
X165120000Y-64622976D01*
D11*
X190071428Y-72178571D02*
X190071428Y-70678571D01*
X189571428Y-71750000D01*
X189071428Y-70678571D01*
X189071428Y-72178571D01*
X188500000Y-70678571D02*
X187500000Y-72178571D01*
X187500000Y-70678571D02*
X188500000Y-72178571D01*
X185857142Y-70607142D02*
X187142857Y-72535714D01*
X185428571Y-72107142D02*
X185214285Y-72178571D01*
X184857142Y-72178571D01*
X184714285Y-72107142D01*
X184642857Y-72035714D01*
X184571428Y-71892857D01*
X184571428Y-71750000D01*
X184642857Y-71607142D01*
X184714285Y-71535714D01*
X184857142Y-71464285D01*
X185142857Y-71392857D01*
X185285714Y-71321428D01*
X185357142Y-71250000D01*
X185428571Y-71107142D01*
X185428571Y-70964285D01*
X185357142Y-70821428D01*
X185285714Y-70750000D01*
X185142857Y-70678571D01*
X184785714Y-70678571D01*
X184571428Y-70750000D01*
X183928571Y-72178571D02*
X183928571Y-70678571D01*
X183071428Y-72178571D02*
X183714285Y-71321428D01*
X183071428Y-70678571D02*
X183928571Y-71535714D01*
X181571428Y-72035714D02*
X181642857Y-72107142D01*
X181857142Y-72178571D01*
X182000000Y-72178571D01*
X182214285Y-72107142D01*
X182357142Y-71964285D01*
X182428571Y-71821428D01*
X182500000Y-71535714D01*
X182500000Y-71321428D01*
X182428571Y-71035714D01*
X182357142Y-70892857D01*
X182214285Y-70750000D01*
X182000000Y-70678571D01*
X181857142Y-70678571D01*
X181642857Y-70750000D01*
X181571428Y-70821428D01*
X180928571Y-72178571D02*
X180928571Y-70678571D01*
X180428571Y-71750000D01*
X179928571Y-70678571D01*
X179928571Y-72178571D01*
X178142857Y-70607142D02*
X179428571Y-72535714D01*
X177642857Y-72178571D02*
X177642857Y-70678571D01*
X176785714Y-72178571D02*
X177428571Y-71321428D01*
X176785714Y-70678571D02*
X177642857Y-71535714D01*
X175500000Y-72178571D02*
X175500000Y-71392857D01*
X175571428Y-71250000D01*
X175714285Y-71178571D01*
X176000000Y-71178571D01*
X176142857Y-71250000D01*
X175500000Y-72107142D02*
X175642857Y-72178571D01*
X176000000Y-72178571D01*
X176142857Y-72107142D01*
X176214285Y-71964285D01*
X176214285Y-71821428D01*
X176142857Y-71678571D01*
X176000000Y-71607142D01*
X175642857Y-71607142D01*
X175500000Y-71535714D01*
X174785714Y-72178571D02*
X174785714Y-71178571D01*
X174785714Y-70678571D02*
X174857142Y-70750000D01*
X174785714Y-70821428D01*
X174714285Y-70750000D01*
X174785714Y-70678571D01*
X174785714Y-70821428D01*
X173857142Y-72178571D02*
X174000000Y-72107142D01*
X174071428Y-71964285D01*
X174071428Y-70678571D01*
X173285714Y-72178571D02*
X173285714Y-70678571D01*
X172642857Y-72178571D02*
X172642857Y-71392857D01*
X172714285Y-71250000D01*
X172857142Y-71178571D01*
X173071428Y-71178571D01*
X173214285Y-71250000D01*
X173285714Y-71321428D01*
X171214285Y-72178571D02*
X171928571Y-72178571D01*
X171928571Y-70678571D01*
X170714285Y-72178571D02*
X170714285Y-70678571D01*
X170142857Y-70678571D01*
X170000000Y-70750000D01*
X169928571Y-70821428D01*
X169857142Y-70964285D01*
X169857142Y-71178571D01*
X169928571Y-71321428D01*
X170000000Y-71392857D01*
X170142857Y-71464285D01*
X170714285Y-71464285D01*
X168071428Y-71178571D02*
X166928571Y-71607142D01*
X168071428Y-72035714D01*
X193872285Y-63927571D02*
X193872285Y-62427571D01*
X192658000Y-63141857D02*
X192443714Y-63213285D01*
X192372285Y-63284714D01*
X192300857Y-63427571D01*
X192300857Y-63641857D01*
X192372285Y-63784714D01*
X192443714Y-63856142D01*
X192586571Y-63927571D01*
X193158000Y-63927571D01*
X193158000Y-62427571D01*
X192658000Y-62427571D01*
X192515142Y-62499000D01*
X192443714Y-62570428D01*
X192372285Y-62713285D01*
X192372285Y-62856142D01*
X192443714Y-62999000D01*
X192515142Y-63070428D01*
X192658000Y-63141857D01*
X193158000Y-63141857D01*
X191658000Y-63927571D02*
X191658000Y-62427571D01*
X191158000Y-63499000D01*
X190658000Y-62427571D01*
X190658000Y-63927571D01*
X189943714Y-63356142D02*
X188800857Y-63356142D01*
X187372285Y-62427571D02*
X188086571Y-62427571D01*
X188158000Y-63141857D01*
X188086571Y-63070428D01*
X187943714Y-62999000D01*
X187586571Y-62999000D01*
X187443714Y-63070428D01*
X187372285Y-63141857D01*
X187300857Y-63284714D01*
X187300857Y-63641857D01*
X187372285Y-63784714D01*
X187443714Y-63856142D01*
X187586571Y-63927571D01*
X187943714Y-63927571D01*
X188086571Y-63856142D01*
X188158000Y-63784714D01*
X186729428Y-62570428D02*
X186658000Y-62499000D01*
X186515142Y-62427571D01*
X186158000Y-62427571D01*
X186015142Y-62499000D01*
X185943714Y-62570428D01*
X185872285Y-62713285D01*
X185872285Y-62856142D01*
X185943714Y-63070428D01*
X186800857Y-63927571D01*
X185872285Y-63927571D01*
X185158000Y-63927571D02*
X184872285Y-63927571D01*
X184729428Y-63856142D01*
X184658000Y-63784714D01*
X184515142Y-63570428D01*
X184443714Y-63284714D01*
X184443714Y-62713285D01*
X184515142Y-62570428D01*
X184586571Y-62499000D01*
X184729428Y-62427571D01*
X185015142Y-62427571D01*
X185158000Y-62499000D01*
X185229428Y-62570428D01*
X185300857Y-62713285D01*
X185300857Y-63070428D01*
X185229428Y-63213285D01*
X185158000Y-63284714D01*
X185015142Y-63356142D01*
X184729428Y-63356142D01*
X184586571Y-63284714D01*
X184515142Y-63213285D01*
X184443714Y-63070428D01*
X183015142Y-63927571D02*
X183872285Y-63927571D01*
X183443714Y-63927571D02*
X183443714Y-62427571D01*
X183586571Y-62641857D01*
X183729428Y-62784714D01*
X183872285Y-62856142D01*
X181229428Y-63927571D02*
X181229428Y-62427571D01*
X181086571Y-63356142D02*
X180658000Y-63927571D01*
X180658000Y-62927571D02*
X181229428Y-63499000D01*
X179443714Y-63856142D02*
X179586571Y-63927571D01*
X179872285Y-63927571D01*
X180015142Y-63856142D01*
X180086571Y-63713285D01*
X180086571Y-63141857D01*
X180015142Y-62999000D01*
X179872285Y-62927571D01*
X179586571Y-62927571D01*
X179443714Y-62999000D01*
X179372285Y-63141857D01*
X179372285Y-63284714D01*
X180086571Y-63427571D01*
X178872285Y-62927571D02*
X178515142Y-63927571D01*
X178158000Y-62927571D02*
X178515142Y-63927571D01*
X178658000Y-64284714D01*
X178729428Y-64356142D01*
X178872285Y-64427571D01*
X177586571Y-63927571D02*
X177586571Y-62427571D01*
X177586571Y-62999000D02*
X177443714Y-62927571D01*
X177158000Y-62927571D01*
X177015142Y-62999000D01*
X176943714Y-63070428D01*
X176872285Y-63213285D01*
X176872285Y-63641857D01*
X176943714Y-63784714D01*
X177015142Y-63856142D01*
X177158000Y-63927571D01*
X177443714Y-63927571D01*
X177586571Y-63856142D01*
X176015142Y-63927571D02*
X176158000Y-63856142D01*
X176229428Y-63784714D01*
X176300857Y-63641857D01*
X176300857Y-63213285D01*
X176229428Y-63070428D01*
X176158000Y-62999000D01*
X176015142Y-62927571D01*
X175800857Y-62927571D01*
X175658000Y-62999000D01*
X175586571Y-63070428D01*
X175515142Y-63213285D01*
X175515142Y-63641857D01*
X175586571Y-63784714D01*
X175658000Y-63856142D01*
X175800857Y-63927571D01*
X176015142Y-63927571D01*
X174229428Y-63927571D02*
X174229428Y-63141857D01*
X174300857Y-62999000D01*
X174443714Y-62927571D01*
X174729428Y-62927571D01*
X174872285Y-62999000D01*
X174229428Y-63856142D02*
X174372285Y-63927571D01*
X174729428Y-63927571D01*
X174872285Y-63856142D01*
X174943714Y-63713285D01*
X174943714Y-63570428D01*
X174872285Y-63427571D01*
X174729428Y-63356142D01*
X174372285Y-63356142D01*
X174229428Y-63284714D01*
X173515142Y-63927571D02*
X173515142Y-62927571D01*
X173515142Y-63213285D02*
X173443714Y-63070428D01*
X173372285Y-62999000D01*
X173229428Y-62927571D01*
X173086571Y-62927571D01*
X171943714Y-63927571D02*
X171943714Y-62427571D01*
X171943714Y-63856142D02*
X172086571Y-63927571D01*
X172372285Y-63927571D01*
X172515142Y-63856142D01*
X172586571Y-63784714D01*
X172658000Y-63641857D01*
X172658000Y-63213285D01*
X172586571Y-63070428D01*
X172515142Y-62999000D01*
X172372285Y-62927571D01*
X172086571Y-62927571D01*
X171943714Y-62999000D01*
X192872285Y-64977571D02*
X192872285Y-66191857D01*
X192800857Y-66334714D01*
X192729428Y-66406142D01*
X192586571Y-66477571D01*
X192300857Y-66477571D01*
X192158000Y-66406142D01*
X192086571Y-66334714D01*
X192015142Y-66191857D01*
X192015142Y-64977571D01*
X191372285Y-66406142D02*
X191158000Y-66477571D01*
X190800857Y-66477571D01*
X190658000Y-66406142D01*
X190586571Y-66334714D01*
X190515142Y-66191857D01*
X190515142Y-66049000D01*
X190586571Y-65906142D01*
X190658000Y-65834714D01*
X190800857Y-65763285D01*
X191086571Y-65691857D01*
X191229428Y-65620428D01*
X191300857Y-65549000D01*
X191372285Y-65406142D01*
X191372285Y-65263285D01*
X191300857Y-65120428D01*
X191229428Y-65049000D01*
X191086571Y-64977571D01*
X190729428Y-64977571D01*
X190515142Y-65049000D01*
X189372285Y-65691857D02*
X189158000Y-65763285D01*
X189086571Y-65834714D01*
X189015142Y-65977571D01*
X189015142Y-66191857D01*
X189086571Y-66334714D01*
X189158000Y-66406142D01*
X189300857Y-66477571D01*
X189872285Y-66477571D01*
X189872285Y-64977571D01*
X189372285Y-64977571D01*
X189229428Y-65049000D01*
X189158000Y-65120428D01*
X189086571Y-65263285D01*
X189086571Y-65406142D01*
X189158000Y-65549000D01*
X189229428Y-65620428D01*
X189372285Y-65691857D01*
X189872285Y-65691857D01*
X186586571Y-66406142D02*
X186729428Y-66477571D01*
X187015142Y-66477571D01*
X187158000Y-66406142D01*
X187229428Y-66334714D01*
X187300857Y-66191857D01*
X187300857Y-65763285D01*
X187229428Y-65620428D01*
X187158000Y-65549000D01*
X187015142Y-65477571D01*
X186729428Y-65477571D01*
X186586571Y-65549000D01*
X185729428Y-66477571D02*
X185872285Y-66406142D01*
X185943714Y-66334714D01*
X186015142Y-66191857D01*
X186015142Y-65763285D01*
X185943714Y-65620428D01*
X185872285Y-65549000D01*
X185729428Y-65477571D01*
X185515142Y-65477571D01*
X185372285Y-65549000D01*
X185300857Y-65620428D01*
X185229428Y-65763285D01*
X185229428Y-66191857D01*
X185300857Y-66334714D01*
X185372285Y-66406142D01*
X185515142Y-66477571D01*
X185729428Y-66477571D01*
X184586571Y-65477571D02*
X184586571Y-66477571D01*
X184586571Y-65620428D02*
X184515142Y-65549000D01*
X184372285Y-65477571D01*
X184158000Y-65477571D01*
X184015142Y-65549000D01*
X183943714Y-65691857D01*
X183943714Y-66477571D01*
X183443714Y-65477571D02*
X182872285Y-65477571D01*
X183229428Y-64977571D02*
X183229428Y-66263285D01*
X183158000Y-66406142D01*
X183015142Y-66477571D01*
X182872285Y-66477571D01*
X182372285Y-66477571D02*
X182372285Y-65477571D01*
X182372285Y-65763285D02*
X182300857Y-65620428D01*
X182229428Y-65549000D01*
X182086571Y-65477571D01*
X181943714Y-65477571D01*
X181229428Y-66477571D02*
X181372285Y-66406142D01*
X181443714Y-66334714D01*
X181515142Y-66191857D01*
X181515142Y-65763285D01*
X181443714Y-65620428D01*
X181372285Y-65549000D01*
X181229428Y-65477571D01*
X181015142Y-65477571D01*
X180872285Y-65549000D01*
X180800857Y-65620428D01*
X180729428Y-65763285D01*
X180729428Y-66191857D01*
X180800857Y-66334714D01*
X180872285Y-66406142D01*
X181015142Y-66477571D01*
X181229428Y-66477571D01*
X179872285Y-66477571D02*
X180015142Y-66406142D01*
X180086571Y-66263285D01*
X180086571Y-64977571D01*
X179086571Y-66477571D02*
X179229428Y-66406142D01*
X179300857Y-66263285D01*
X179300857Y-64977571D01*
X177943714Y-66406142D02*
X178086571Y-66477571D01*
X178372285Y-66477571D01*
X178515142Y-66406142D01*
X178586571Y-66263285D01*
X178586571Y-65691857D01*
X178515142Y-65549000D01*
X178372285Y-65477571D01*
X178086571Y-65477571D01*
X177943714Y-65549000D01*
X177872285Y-65691857D01*
X177872285Y-65834714D01*
X178586571Y-65977571D01*
X177229428Y-66477571D02*
X177229428Y-65477571D01*
X177229428Y-65763285D02*
X177158000Y-65620428D01*
X177086571Y-65549000D01*
X176943714Y-65477571D01*
X176800857Y-65477571D01*
X174300857Y-66477571D02*
X174800857Y-65763285D01*
X175158000Y-66477571D02*
X175158000Y-64977571D01*
X174586571Y-64977571D01*
X174443714Y-65049000D01*
X174372285Y-65120428D01*
X174300857Y-65263285D01*
X174300857Y-65477571D01*
X174372285Y-65620428D01*
X174443714Y-65691857D01*
X174586571Y-65763285D01*
X175158000Y-65763285D01*
X172872285Y-66477571D02*
X173729428Y-66477571D01*
X173300857Y-66477571D02*
X173300857Y-64977571D01*
X173443714Y-65191857D01*
X173586571Y-65334714D01*
X173729428Y-65406142D01*
D10*
X177257904Y-76933000D02*
X176257904Y-76933000D01*
X176448380Y-78430380D02*
X176781714Y-77954190D01*
X177019809Y-78430380D02*
X177019809Y-77430380D01*
X176638857Y-77430380D01*
X176543619Y-77478000D01*
X176496000Y-77525619D01*
X176448380Y-77620857D01*
X176448380Y-77763714D01*
X176496000Y-77858952D01*
X176543619Y-77906571D01*
X176638857Y-77954190D01*
X177019809Y-77954190D01*
X176257904Y-76933000D02*
X175353142Y-76933000D01*
X176019809Y-77906571D02*
X175686476Y-77906571D01*
X175543619Y-78430380D02*
X176019809Y-78430380D01*
X176019809Y-77430380D01*
X175543619Y-77430380D01*
X175353142Y-76933000D02*
X174400761Y-76933000D01*
X175162666Y-78382761D02*
X175019809Y-78430380D01*
X174781714Y-78430380D01*
X174686476Y-78382761D01*
X174638857Y-78335142D01*
X174591238Y-78239904D01*
X174591238Y-78144666D01*
X174638857Y-78049428D01*
X174686476Y-78001809D01*
X174781714Y-77954190D01*
X174972190Y-77906571D01*
X175067428Y-77858952D01*
X175115047Y-77811333D01*
X175162666Y-77716095D01*
X175162666Y-77620857D01*
X175115047Y-77525619D01*
X175067428Y-77478000D01*
X174972190Y-77430380D01*
X174734095Y-77430380D01*
X174591238Y-77478000D01*
X174400761Y-76933000D02*
X173496000Y-76933000D01*
X174162666Y-77906571D02*
X173829333Y-77906571D01*
X173686476Y-78430380D02*
X174162666Y-78430380D01*
X174162666Y-77430380D01*
X173686476Y-77430380D01*
X173496000Y-76933000D02*
X172734095Y-76933000D01*
X173400761Y-77430380D02*
X172829333Y-77430380D01*
X173115047Y-78430380D02*
X173115047Y-77430380D01*
X194025238Y-55615023D02*
X193977619Y-55472166D01*
X193977619Y-55234071D01*
X194025238Y-55138833D01*
X194072857Y-55091214D01*
X194168095Y-55043595D01*
X194263333Y-55043595D01*
X194358571Y-55091214D01*
X194406190Y-55138833D01*
X194453809Y-55234071D01*
X194501428Y-55424547D01*
X194549047Y-55519785D01*
X194596666Y-55567404D01*
X194691904Y-55615023D01*
X194787142Y-55615023D01*
X194882380Y-55567404D01*
X194930000Y-55519785D01*
X194977619Y-55424547D01*
X194977619Y-55186452D01*
X194930000Y-55043595D01*
X194072857Y-54043595D02*
X194025238Y-54091214D01*
X193977619Y-54234071D01*
X193977619Y-54329309D01*
X194025238Y-54472166D01*
X194120476Y-54567404D01*
X194215714Y-54615023D01*
X194406190Y-54662642D01*
X194549047Y-54662642D01*
X194739523Y-54615023D01*
X194834761Y-54567404D01*
X194930000Y-54472166D01*
X194977619Y-54329309D01*
X194977619Y-54234071D01*
X194930000Y-54091214D01*
X194882380Y-54043595D01*
X193977619Y-53615023D02*
X194977619Y-53615023D01*
X193977619Y-53043595D02*
X194549047Y-53472166D01*
X194977619Y-53043595D02*
X194406190Y-53615023D01*
X186357619Y-55567404D02*
X187357619Y-55567404D01*
X186643333Y-55234071D01*
X187357619Y-54900738D01*
X186357619Y-54900738D01*
X186357619Y-54424547D02*
X187357619Y-54424547D01*
X186405238Y-53995976D02*
X186357619Y-53853119D01*
X186357619Y-53615023D01*
X186405238Y-53519785D01*
X186452857Y-53472166D01*
X186548095Y-53424547D01*
X186643333Y-53424547D01*
X186738571Y-53472166D01*
X186786190Y-53519785D01*
X186833809Y-53615023D01*
X186881428Y-53805500D01*
X186929047Y-53900738D01*
X186976666Y-53948357D01*
X187071904Y-53995976D01*
X187167142Y-53995976D01*
X187262380Y-53948357D01*
X187310000Y-53900738D01*
X187357619Y-53805500D01*
X187357619Y-53567404D01*
X187310000Y-53424547D01*
X187357619Y-52805500D02*
X187357619Y-52615023D01*
X187310000Y-52519785D01*
X187214761Y-52424547D01*
X187024285Y-52376928D01*
X186690952Y-52376928D01*
X186500476Y-52424547D01*
X186405238Y-52519785D01*
X186357619Y-52615023D01*
X186357619Y-52805500D01*
X186405238Y-52900738D01*
X186500476Y-52995976D01*
X186690952Y-53043595D01*
X187024285Y-53043595D01*
X187214761Y-52995976D01*
X187310000Y-52900738D01*
X187357619Y-52805500D01*
X188897619Y-55567404D02*
X189897619Y-55567404D01*
X189183333Y-55234071D01*
X189897619Y-54900738D01*
X188897619Y-54900738D01*
X189897619Y-54234071D02*
X189897619Y-54043595D01*
X189850000Y-53948357D01*
X189754761Y-53853119D01*
X189564285Y-53805500D01*
X189230952Y-53805500D01*
X189040476Y-53853119D01*
X188945238Y-53948357D01*
X188897619Y-54043595D01*
X188897619Y-54234071D01*
X188945238Y-54329309D01*
X189040476Y-54424547D01*
X189230952Y-54472166D01*
X189564285Y-54472166D01*
X189754761Y-54424547D01*
X189850000Y-54329309D01*
X189897619Y-54234071D01*
X188945238Y-53424547D02*
X188897619Y-53281690D01*
X188897619Y-53043595D01*
X188945238Y-52948357D01*
X188992857Y-52900738D01*
X189088095Y-52853119D01*
X189183333Y-52853119D01*
X189278571Y-52900738D01*
X189326190Y-52948357D01*
X189373809Y-53043595D01*
X189421428Y-53234071D01*
X189469047Y-53329309D01*
X189516666Y-53376928D01*
X189611904Y-53424547D01*
X189707142Y-53424547D01*
X189802380Y-53376928D01*
X189850000Y-53329309D01*
X189897619Y-53234071D01*
X189897619Y-52995976D01*
X189850000Y-52853119D01*
X188897619Y-52424547D02*
X189897619Y-52424547D01*
M02*
